/* XPM */
static char * C:\Users\pc\Desktop\down_xpm[] = {
"32 32 536 2",
"  	c #8AC924",
". 	c #76AD1B",
"+ 	c #80B724",
"@ 	c #76AA1A",
"# 	c #7DB421",
"$ 	c #82B824",
"% 	c #8CC824",
"& 	c #8ED11B",
"* 	c #88C521",
"= 	c #76AA17",
"- 	c #7AB11F",
"; 	c #72A615",
"> 	c #7DBC17",
", 	c #79AF1D",
"' 	c #7CB120",
") 	c #7DB320",
"! 	c #86C320",
"~ 	c #9ADC27",
"{ 	c #93D720",
"] 	c #87C31F",
"^ 	c #83BF1A",
"/ 	c #99DB26",
"( 	c #74AA17",
"_ 	c #7EB422",
": 	c #88C41F",
"< 	c #76AC1A",
"[ 	c #78AE1B",
"} 	c #99DE28",
"| 	c #91D31E",
"1 	c #87C41F",
"2 	c #87CB16",
"3 	c #6DA211",
"4 	c #76AB18",
"5 	c #87C31E",
"6 	c #78B612",
"7 	c #8CCB24",
"8 	c #77AD19",
"9 	c #70A715",
"0 	c #6FA713",
"a 	c #7CB220",
"b 	c #77AE1B",
"c 	c #79AE1D",
"d 	c #8CC822",
"e 	c #7FBB17",
"f 	c #90D21E",
"g 	c #8CC823",
"h 	c #80B623",
"i 	c #7FBC17",
"j 	c #93D61F",
"k 	c #97D924",
"l 	c #8DC925",
"m 	c #8AC02E",
"n 	c #7BB01F",
"o 	c #7DB815",
"p 	c #96DA22",
"q 	c #6EA413",
"r 	c #7EBA16",
"s 	c #6CA111",
"t 	c #8CCA25",
"u 	c #9DE129",
"v 	c #8AC621",
"w 	c #88C621",
"x 	c #88C520",
"y 	c #79B01D",
"z 	c #89C521",
"A 	c #9EE22A",
"B 	c #8CCF1A",
"C 	c #8ED01A",
"D 	c #89C620",
"E 	c #8DCB25",
"F 	c #7FB622",
"G 	c #75AA18",
"H 	c #86C31D",
"I 	c #8AC821",
"J 	c #98DB24",
"K 	c #80BA17",
"L 	c #87C31D",
"M 	c #90CD26",
"N 	c #88C51F",
"O 	c #8AC923",
"P 	c #81BF1A",
"Q 	c #80B823",
"R 	c #7BB11E",
"S 	c #73A818",
"T 	c #85C21E",
"U 	c #6EA514",
"V 	c #88C420",
"W 	c #91D41E",
"X 	c #8FD31C",
"Y 	c #8BC822",
"Z 	c #77AC1A",
"` 	c #7BB914",
" .	c #7BB221",
"..	c #7CB221",
"+.	c #6EA512",
"@.	c #6DA312",
"#.	c #9ADE27",
"$.	c #91D620",
"%.	c #8FCA26",
"&.	c #86C11D",
"*.	c #74AA18",
"=.	c #7AB01E",
"-.	c #92D02B",
";.	c #95D621",
">.	c #AE846E",
",.	c #71A615",
"'.	c #73A917",
").	c #7AB11E",
"!.	c #72A716",
"~.	c #74AB18",
"{.	c #71A818",
"].	c #75AB1A",
"^.	c #72A818",
"/.	c #80BC17",
"(.	c #87C51F",
"_.	c #7BB01E",
":.	c #7FB422",
"<.	c #84BA27",
"[.	c #70A514",
"}.	c #70A615",
"|.	c #6FA312",
"1.	c #84C01C",
"2.	c #98DC25",
"3.	c #96D923",
"4.	c #86C11E",
"5.	c #7AB21F",
"6.	c #8BCA24",
"7.	c #74AA19",
"8.	c #8ECD26",
"9.	c #8CC924",
"0.	c #8AC823",
"a.	c #75A919",
"b.	c #7DBA15",
"c.	c #8ED01B",
"d.	c #81BE19",
"e.	c #6A9F0F",
"f.	c #81BC17",
"g.	c #7DB915",
"h.	c #72A817",
"i.	c #94D521",
"j.	c #8AC723",
"k.	c #8BCA22",
"l.	c #7EB916",
"m.	c #93D02B",
"n.	c #8DCA24",
"o.	c #79AF1C",
"p.	c #88C622",
"q.	c #8FD21C",
"r.	c #9EDF2A",
"s.	c #8ED01C",
"t.	c #7AB613",
"u.	c #72A917",
"v.	c #85C31E",
"w.	c #93D32B",
"x.	c #7CB320",
"y.	c #73A816",
"z.	c #8AC721",
"A.	c #88C31F",
"B.	c #8CC923",
"C.	c #93D51F",
"D.	c #8ECB24",
"E.	c #76AC1B",
"F.	c #74A817",
"G.	c #78AF1C",
"H.	c #7BB21E",
"I.	c #7EB523",
"J.	c #8ACC19",
"K.	c #95D923",
"L.	c #9EE32D",
"M.	c #8DD11B",
"N.	c #9CDD28",
"O.	c #99DD26",
"P.	c #7DB11D",
"Q.	c #77AE1C",
"R.	c #76AB1A",
"S.	c #78AD1B",
"T.	c #8DCB26",
"U.	c #99DC28",
"V.	c #89C520",
"W.	c #98DC26",
"X.	c #8AC724",
"Y.	c #7CB11F",
"Z.	c #88C620",
"`.	c #82BF1C",
" +	c #7AAF1D",
".+	c #80B422",
"++	c #79B01C",
"@+	c #90D31E",
"#+	c #82C01A",
"$+	c #71A715",
"%+	c #7BB220",
"&+	c #86C41F",
"*+	c #7DBA16",
"=+	c #77AD1B",
"-+	c #7FB916",
";+	c #90CF28",
">+	c #7EB322",
",+	c #97DA24",
"'+	c #93D621",
")+	c #8DCF1A",
"!+	c #7DB31F",
"~+	c #75AC1A",
"{+	c #6BA00E",
"]+	c #7CB11E",
"^+	c #8BC722",
"/+	c #83BF1B",
"(+	c #86C31F",
"_+	c #75AB19",
":+	c #74AC1A",
"<+	c #74A91A",
"[+	c #87C41E",
"}+	c #71A514",
"|+	c #6EA310",
"1+	c #73A916",
"2+	c #94D721",
"3+	c #8BC924",
"4+	c #7BB814",
"5+	c #7EB622",
"6+	c #7AAE1D",
"7+	c #7FBF18",
"8+	c #8DCA26",
"9+	c #98DA24",
"0+	c #8DCF19",
"a+	c #93D722",
"b+	c #7BB11F",
"c+	c #91CF29",
"d+	c #90CD27",
"e+	c #86BE2A",
"f+	c #81B723",
"g+	c #7EB321",
"h+	c #6FA514",
"i+	c #94D620",
"j+	c #92D720",
"k+	c #92D61F",
"l+	c #9CE027",
"m+	c #92D51E",
"n+	c #99DD27",
"o+	c #92D22B",
"p+	c #8BCC17",
"q+	c #7FBB18",
"r+	c #86C31E",
"s+	c #7CB21F",
"t+	c #8AC822",
"u+	c #89C622",
"v+	c #88C61F",
"w+	c #9ADC25",
"x+	c #9CDF27",
"y+	c #80B824",
"z+	c #85BC29",
"A+	c #6FA413",
"B+	c #8FCD26",
"C+	c #D4C0AA",
"D+	c #91CE29",
"E+	c #94D821",
"F+	c #6FA513",
"G+	c #74AB19",
"H+	c #73A716",
"I+	c #84BF1C",
"J+	c #6CA110",
"K+	c #86C21E",
"L+	c #92D029",
"M+	c #8BC723",
"N+	c #795547",
"O+	c #79B611",
"P+	c #87C420",
"Q+	c #9DDF29",
"R+	c #9FE22A",
"S+	c #96D823",
"T+	c #9ADD27",
"U+	c #7DB522",
"V+	c #8DC924",
"W+	c #89C821",
"X+	c #7EB915",
"Y+	c #85C21F",
"Z+	c #71A513",
"`+	c #7EBB17",
" @	c #86C21D",
".@	c #89C822",
"+@	c #84C31C",
"@@	c #86C520",
"#@	c #95D620",
"$@	c #92D31F",
"%@	c #91CF28",
"&@	c #8FCB26",
"*@	c #86C813",
"=@	c #699F0F",
"-@	c #8ECA26",
";@	c #8AC722",
">@	c #8DD01C",
",@	c #70A513",
"'@	c #8DCA25",
")@	c #73A815",
"!@	c #89C722",
"~@	c #82C11E",
"{@	c #72A616",
"]@	c #85C01B",
"^@	c #97D822",
"/@	c #8ECB26",
"(@	c #95D822",
"_@	c #9BDD26",
":@	c #9ADE26",
"<@	c #9EE32C",
"[@	c #9BDF28",
"}@	c #95D721",
"|@	c #71A817",
"1@	c #89C71F",
"2@	c #9DE12A",
"3@	c #91D420",
"4@	c #A79A90",
"5@	c #85C11D",
"6@	c #99DB25",
"7@	c #8CCA24",
"8@	c #7FB724",
"9@	c #89C721",
"0@	c #85C21D",
"a@	c #70A816",
"b@	c #78B01C",
"c@	c #71A613",
"d@	c #83C01C",
"e@	c #9EE02A",
"f@	c #9BDD27",
"g@	c #7EB917",
"h@	c #89C823",
"i@	c #7EB521",
"j@	c #74A818",
"k@	c #80BE18",
"l@	c #97DD24",
"m@	c #94D71F",
"n@	c #8ECC26",
"o@	c #8ECB25",
"p@	c #9BDF29",
"q@	c #83C01B",
"r@	c #80BB18",
"s@	c #8FD21E",
"t@	c #81BD1A",
"u@	c #78AE1C",
"v@	c #92D51F",
"w@	c #86C21C",
"x@	c #87C620",
"y@	c #99DC26",
"z@	c #82BE1A",
"A@	c #7DB422",
"B@	c #6FA415",
"C@	c #73AA17",
"D@	c #7EBB16",
"E@	c #75AD19",
"F@	c #86BD2A",
"G@	c #96D922",
"H@	c #92CF28",
"I@	c #82BF1B",
"J@	c #6AA110",
"K@	c #73AA18",
"L@	c #93D12C",
"M@	c #93CF29",
"N@	c #7CBB14",
"O@	c #84BC28",
"P@	c #91CD28",
"Q@	c #92CF2A",
"R@	c #77AC1B",
"S@	c #97D922",
"T@	c #94D722",
"U@	c #80B725",
"V@	c #93CF2A",
"W@	c #9CE12A",
"X@	c #9CE02A",
"Y@	c #92D41F",
"Z@	c #94D822",
"`@	c #70A614",
" #	c #71A714",
".#	c #82BA27",
"+#	c #7AB320",
"@#	c #7BB715",
"##	c #80BB17",
"$#	c #A1E62E",
"%#	c #80BF1A",
"&#	c #80BD18",
"*#	c #7BB714",
"=#	c #87C21E",
"-#	c #74A716",
";#	c #7AB220",
">#	c #7DB220",
",#	c #74AC19",
"'#	c #7AB01D",
")#	c #83BC27",
"!#	c #8BCE19",
"~#	c #9ADE28",
"{#	c #87C21D",
"]#	c #6FA614",
"^#	c #91D720",
"/#	c #8FD11C",
"(#	c #8DD01B",
"_#	c #85C21C",
":#	c #8DD11A",
"<#	c #99DB27",
"[#	c #191715",
"}#	c #78B410",
"|#	c #76AB19",
"1#	c #77AD1C",
"2#	c #84C31E",
"3#	c #87C520",
"4#	c #81B825",
"5#	c #6FA515",
"6#	c #96D924",
"7#	c #97DA25",
"8#	c #95D61F",
"9#	c #7EBB15",
"0#	c #9ADB25",
"a#	c #95D428",
"b#	c #88C41E",
"c#	c #78B510",
"d#	c #78AF1B",
"e#	c #79AF1E",
"f#	c #81B522",
"g#	c #80BD19",
"h#	c #6DA311",
"i#	c #90D41E",
"j#	c #84C11C",
"k#	c #85C11C",
"l#	c #9ADF27",
"m#	c #81BD18",
"n#	c #95D922",
"o#	c #99DC25",
"p#	c #91D51F",
"q#	c #93D721",
"r#	c #97DC25",
"s#	c #72A714",
"t#	c #8BC823",
"u#	c #71A815",
"v#	c #74AA1A",
"w#	c #75AA19",
"x#	c #7FBE19",
"y#	c #95D521",
"z#	c #9CE22A",
"A#	c #7FBA17",
"B#	c #72A717",
"C#	c #7EBC17",
"D#	c #83C11C",
"E#	c #82BF18",
"F#	c #8FCD27",
"G#	c #89CB15",
"H#	c #83C01A",
"I#	c #A1E52D",
"J#	c #71A916",
"K#	c #84C11D",
"L#	c #80BE1A",
"M#	c #81BE18",
"N#	c #87C621",
"O#	c #86C11C",
"P#	c #73A817",
"Q#	c #6AA011",
"R#	c #91D41D",
"S#	c #8ECF1B",
"T#	c #76AD1A",
"U#	c #79B01E",
"V#	c #91CD26",
"W#	c #8ED31C",
"X#	c #7DB11E",
"Y#	c #86C41E",
"Z#	c #76AA19",
"`#	c #6BA110",
" $	c #92D620",
".$	c #8BCD18",
"+$	c #84C01B",
"@$	c #9FE12C",
"#$	c #78AF1D",
"$$	c #75AC19",
"%$	c #77AB1A",
"&$	c #78AD1A",
"*$	c #8CC723",
"=$	c #7FBD17",
"-$	c #6FA512",
";$	c #6BA111",
">$	c #8FD21B",
",$	c #9CDF28",
"'$	c #78AE1D",
")$	c #6FA314",
"!$	c #7DB321",
"~$	c #90D31B",
"{$	c #7AB611",
"]$	c #8FD21D",
"^$	c #9FE12A",
"/$	c #73AA1A",
"($	c #9BD430",
"_$	c #679B0C",
":$	c #6FA615",
"<$	c #81B624",
"[$	c #7FBD18",
"}$	c #8FD11B",
"|$	c #86C01D",
"1$	c #84C11B",
"2$	c #9CDF2A",
"3$	c #9EE12A",
"4$	c #89C422",
"5$	c #98D630",
"6$	c #7DB420",
"7$	c #91CE28",
"8$	c #98DB25",
"9$	c #72A916",
"0$	c #98DD25",
"a$	c #7FB523",
"b$	c #6FA313",
"c$	c #90D41F",
"d$	c #7CB915",
"e$	c #8BC721",
"f$	c #7EB814",
"g$	c #8ACE16",
"h$	c #89C621",
"i$	c #7FBC18",
"j$	c #93D620",
"k$	c #8CCF19",
"l$	c #80BC16",
"m$	c #7AB01F",
"n$	c #75AC17",
"o$	c #77AF1C",
"p$	c #70A714",
"q$	c #85C31C",
"r$	c #9DDD29",
"s$	c #82C21D",
"t$	c #7FBB15",
"u$	c #7CB916",
"v$	c #78AD1C",
"w$	c #73A918",
"x$	c #84C21D",
"y$	c #74A918",
"z$	c #75AB18",
"A$	c #85C31D",
"B$	c #95D821",
"C$	c #97DA21",
"D$	c #75AB1B",
"E$	c #85BB29",
"F$	c #8DCF1B",
"G$	c #9CE02B",
"H$	c #9EE22C",
"I$	c #82C11D",
"J$	c #90CE27",
"K$	c #92D41E",
"  . + @ # $ % & * = - ; > * , ' ) ! ~ { ] ^ / ( _ : < [ } | 1 2 ",
"3 4 5 6 7 8 9 0 a b c d e f g h i j k l m n o p q r s t u v w x ",
"y i z A B C D E F G H I J K L a M N O P Q R S T U V V W X Y Z ` ",
" ...+.@.d #.$.%.&.*.=.-.;.Y >.>.,.t '.).!.~.{.].^./.J W (.Y _.:.",
"Z <.g [.}.|.1.2.3.4.5.6.>.>.>.>.>.>.7.(.8.9.0.a., (.b.c.d.e.q f.",
"g.h.i.j.7.=.k.l.m.n.o.p.>.>.>.>.>.>.(.q.r.s.t.t . u.'.v.w.x.y.z.",
"A.B.C.D.E.!.F.G.H._ I.>.>.>.>.>.>.>.>.J.K.L.M.N.O.P.Q.R.( S.T.U.",
"p V.W.X.Y.Z.`. +.+++d.>.>.>.>.>.>.>.>.@+#+$+%+< &+*+=+-+;+>+E ,+",
"'+)+] !+~+{+]+c ^+e /+>.>.>.>.>.>.>.>.(+_+:+<+[+}+|+1+O #.2+3+4+",
"5+6+3 R.# 7+8+x 9+0+a+>.>.>.>.>.>.>.>.V b+c+d+b e+f+g+h+3+i+j+x ",
"c #+[.@.Z.k+l+m+n+o+p+>.>.>.>.>.>.>.>.x.e N :.: /+q+r+- s+Z r+*.",
"t+u+< v+w+x+y+z+A+=+B+C+>.>.>.>.>.>.C+; b+9 D+* E+A r+1 1 F+9 u.",
"G+H+o.I+J+K+Z.H L+M+b N+>.>.>.>.>.>.N+O+_.7.P+Q+'+R+S+T+Y U+V+m.",
"t W+h+=+X+Y+o.,.Z+`+ @- >.>.>.>.>.>.(..@+@_ @@#@$@%@&@*@2+: =@-@",
";@>@,@^.'@)@F.!@~@{@_+$+>.>.>.>.>.>.]@^@z _.. /@(@6.[.Z _@:@F.<@",
"[@}@A.|@h._+1@2@3@4@1 7.>.>.>.>.>.>.5@6@4@7@8@9@0@a@b@c@d@M.. e@",
"f@g@h@i@j@k@4@l@4@m@n@>.>.>.>.>.>.>.>.o@p@4@q@4@< s+M -@+ r@H s@",
"3+t@u@) n@v@4@w@4@4@x@>.>.>.>.>.>.>.>.n 4@4@y@4@S.z@A@B@j@C@D@q@",
"Q._.E@F@J G@~.4@4@4@4@>.>.>.>.>.>.>.>.4@4@4@4@H@I@I@J@7@'@Z K@L@",
"=.M@3 D N@O@P@Q@,@4@4@4@4@4@4@4@4@4@4@4@4@R@S@T@;@U@V@W@X@Y@Z@`@",
"&+ #F+_+@ .#+#@#4@4@4@N+>.C+C+C+C+>.>.4@4@4@n+^+*.##&+@+$#V+D+7.",
"F+%#D &#*#=#-#;#o@>#N+N+>.C+C+C+C+>.N+N+,#'#n j.)#H !#~#d@{#c ]#",
"P+^#/#(#w+_#R.}+K.:#<#C+[#>.C+C+>.[#C+d.}#d ] |#1#G 2#3#Y 4#Z 5#",
"6#&#* V+7#8#[ 9#0#a#5@C+>.>.[#[#>.>.C+B.Y@b#c#o@d#u.e#'#f#g#h#i#",
"j#, z@1.k#, q l#| m#D C+C+>.>.>.>.C+C+n#o#p#q#r#1 y.s#g#v t#u#k+",
", v#w#/.x#y y#z#A#_ B#C+C+C+C+C+C+C+C+x+v+]@1 C#3.D#<.H E#x H F#",
". ]#G#Z H#y I#0@+ J#0+C+C+D K#L#M#C+C+u+N#O#P#Q#R#S#'#;#T#U#V#) ",
"K@9@W#X#0@V+Y#Z#`# $.$C+y.+$@$m+2.V C+#$$$/@%$&$*$* G.C#L#=$-$;$",
"S >$,$'$Y.@ J+)$!$~${$N+E.Z@]$T#o#^$N+/$($_$:$<$R.c [$7@}$|$] 1$",
"2$3$4$G 5$P#6$7$8$~ _.9$N+0$q a$b$N+c$W.t#[$I.d$o.{+e$f$m+g$h$i$",
"I#0.1#'$< %.F#j$k$l$] m$j@n$o$p$: 3+q$r$s$t$u$v$w$Z.`@H ^+T+E+J ",
"*+x$y$o.z$A$B$C$K#T D$E$T#w$4.Q.~.R@Y F$G$H$S+D$@ h$h#I$J$B$'+K$"};
