/* XPM */
static char * C:\Users\pc\Desktop\left_xpm[] = {
"32 32 504 2",
"  	c #8AC924",
". 	c #76AD1B",
"+ 	c #80B724",
"@ 	c #76AA1A",
"# 	c #7DB421",
"$ 	c #82B824",
"% 	c #8CC824",
"& 	c #8ED11B",
"* 	c #88C521",
"= 	c #76AA17",
"- 	c #7AB11F",
"; 	c #72A615",
"> 	c #7DBC17",
", 	c #79AF1D",
"' 	c #7CB120",
") 	c #7DB320",
"! 	c #86C320",
"~ 	c #9ADC27",
"{ 	c #93D720",
"] 	c #87C31F",
"^ 	c #83BF1A",
"/ 	c #99DB26",
"( 	c #74AA17",
"_ 	c #7EB422",
": 	c #88C41F",
"< 	c #76AC1A",
"[ 	c #78AE1B",
"} 	c #99DE28",
"| 	c #91D31E",
"1 	c #87C41F",
"2 	c #87CB16",
"3 	c #6DA211",
"4 	c #76AB18",
"5 	c #87C31E",
"6 	c #78B612",
"7 	c #8CCB24",
"8 	c #77AD19",
"9 	c #70A715",
"0 	c #6FA713",
"a 	c #7CB220",
"b 	c #77AE1B",
"c 	c #79AE1D",
"d 	c #8CC822",
"e 	c #7FBB17",
"f 	c #90D21E",
"g 	c #8CC823",
"h 	c #80B623",
"i 	c #7FBC17",
"j 	c #93D61F",
"k 	c #97D924",
"l 	c #8DC925",
"m 	c #8AC02E",
"n 	c #7BB01F",
"o 	c #7DB815",
"p 	c #96DA22",
"q 	c #6EA413",
"r 	c #7EBA16",
"s 	c #6CA111",
"t 	c #8CCA25",
"u 	c #9DE129",
"v 	c #8AC621",
"w 	c #88C621",
"x 	c #88C520",
"y 	c #79B01D",
"z 	c #89C521",
"A 	c #A79A90",
"B 	c #8CCF1A",
"C 	c #8ED01A",
"D 	c #89C620",
"E 	c #8DCB25",
"F 	c #7FB622",
"G 	c #75AA18",
"H 	c #86C31D",
"I 	c #8AC821",
"J 	c #98DB24",
"K 	c #87C31D",
"L 	c #90CD26",
"M 	c #88C51F",
"N 	c #8AC923",
"O 	c #81BF1A",
"P 	c #80B823",
"Q 	c #7BB11E",
"R 	c #73A818",
"S 	c #85C21E",
"T 	c #6EA514",
"U 	c #88C420",
"V 	c #91D41E",
"W 	c #8FD31C",
"X 	c #8BC822",
"Y 	c #77AC1A",
"Z 	c #7BB914",
"` 	c #7BB221",
" .	c #6EA512",
"..	c #9ADE27",
"+.	c #91D620",
"@.	c #8FCA26",
"#.	c #86C11D",
"$.	c #74AA18",
"%.	c #7AB01E",
"&.	c #92D02B",
"*.	c #95D621",
"=.	c #8BC824",
"-.	c #71A615",
";.	c #73A917",
">.	c #7AB11E",
",.	c #72A716",
"'.	c #74AB18",
").	c #71A818",
"!.	c #75AB1A",
"~.	c #72A818",
"{.	c #80BC17",
"].	c #87C51F",
"^.	c #7BB01E",
"/.	c #7FB422",
"(.	c #6FA312",
"_.	c #84C01C",
":.	c #98DC25",
"<.	c #96D923",
"[.	c #86C11E",
"}.	c #7AB21F",
"|.	c #8BCA24",
"1.	c #689D0D",
"2.	c #74AA19",
"3.	c #8ECD26",
"4.	c #8CC924",
"5.	c #8AC823",
"6.	c #75A919",
"7.	c #7DBA15",
"8.	c #8ED01B",
"9.	c #81BE19",
"0.	c #6A9F0F",
"a.	c #81BC17",
"b.	c #7DB915",
"c.	c #8BCA22",
"d.	c #7EB916",
"e.	c #93D02B",
"f.	c #8DCA24",
"g.	c #79AF1C",
"h.	c #8FD21C",
"i.	c #9EDF2A",
"j.	c #8ED01C",
"k.	c #7AB613",
"l.	c #72A917",
"m.	c #85C31E",
"n.	c #93D32B",
"o.	c #7CB320",
"p.	c #73A816",
"q.	c #8AC721",
"r.	c #88C31F",
"s.	c #8CC923",
"t.	c #93D51F",
"u.	c #8ECB24",
"v.	c #795547",
"w.	c #78AF1C",
"x.	c #7BB21E",
"y.	c #99DC26",
"z.	c #75AA19",
"A.	c #71A816",
"B.	c #7FBA15",
"C.	c #95D823",
"D.	c #8ACC19",
"E.	c #95D923",
"F.	c #9EE32D",
"G.	c #8DD11B",
"H.	c #9CDD28",
"I.	c #99DD26",
"J.	c #7DB11D",
"K.	c #77AE1C",
"L.	c #76AB1A",
"M.	c #78AD1B",
"N.	c #8DCB26",
"O.	c #99DC28",
"P.	c #89C520",
"Q.	c #98DC26",
"R.	c #D4C0AA",
"S.	c #AE846E",
"T.	c #82BE19",
"U.	c #7CB714",
"V.	c #95DA24",
"W.	c #96D922",
"X.	c #90D31E",
"Y.	c #82C01A",
"Z.	c #71A715",
"`.	c #7BB220",
" +	c #86C41F",
".+	c #7DBA16",
"++	c #77AD1B",
"@+	c #7FB916",
"#+	c #90CF28",
"$+	c #7EB322",
"%+	c #97DA24",
"&+	c #93D621",
"*+	c #8DCF1A",
"=+	c #7DB31F",
"-+	c #75AC1A",
";+	c #80BC18",
">+	c #7EB421",
",+	c #83B927",
"'+	c #85C21D",
")+	c #6FA212",
"!+	c #84C11C",
"~+	c #97DA23",
"{+	c #82BF1B",
"]+	c #86C31F",
"^+	c #75AB19",
"/+	c #74AC1A",
"(+	c #74A91A",
"_+	c #87C41E",
":+	c #71A514",
"<+	c #6EA310",
"[+	c #73A916",
"}+	c #94D721",
"|+	c #8BC924",
"1+	c #7BB814",
"2+	c #7EB622",
"3+	c #7AAE1D",
"4+	c #191715",
"5+	c #93D722",
"6+	c #87C11F",
"7+	c #79B01E",
"8+	c #70A615",
"9+	c #89C622",
"0+	c #99DB24",
"a+	c #8ECB26",
"b+	c #7BB11F",
"c+	c #91CF29",
"d+	c #90CD27",
"e+	c #86BE2A",
"f+	c #81B723",
"g+	c #7EB321",
"h+	c #6FA514",
"i+	c #94D620",
"j+	c #92D720",
"k+	c #70A514",
"l+	c #6DA312",
"m+	c #8BCC17",
"n+	c #95D721",
"o+	c #8ECA25",
"p+	c #8CCB25",
"q+	c #7CBA15",
"r+	c #80B723",
"s+	c #90CF29",
"t+	c #83BF1B",
"u+	c #7FBB18",
"v+	c #86C31E",
"w+	c #7CB21F",
"x+	c #8AC822",
"y+	c #88C61F",
"z+	c #8FCD26",
"A+	c #8FD21D",
"B+	c #7BB713",
"C+	c #7CB321",
"D+	c #8BC823",
"E+	c #78AE1C",
"F+	c #83B926",
"G+	c #91CE29",
"H+	c #94D821",
"I+	c #9EE22A",
"J+	c #6FA513",
"K+	c #74AB19",
"L+	c #73A716",
"M+	c #84BF1C",
"N+	c #6CA110",
"O+	c #92CD28",
"P+	c #98D62F",
"Q+	c #8CC925",
"R+	c #7EB522",
"S+	c #7BB812",
"T+	c #79B611",
"U+	c #87C420",
"V+	c #9DDF29",
"W+	c #9FE22A",
"X+	c #96D823",
"Y+	c #9ADD27",
"Z+	c #7DB522",
"`+	c #8DC924",
" @	c #89C821",
".@	c #7EB915",
"+@	c #85C21F",
"@@	c #7AB814",
"#@	c #84C21C",
"$@	c #6EA110",
"%@	c #8FCC27",
"&@	c #89C822",
"*@	c #84C31C",
"=@	c #86C520",
"-@	c #95D620",
";@	c #92D31F",
">@	c #91CF28",
",@	c #8FCB26",
"'@	c #86C813",
")@	c #699F0F",
"!@	c #8ECA26",
"~@	c #8AC722",
"{@	c #8DD01C",
"]@	c #70A513",
"^@	c #8DCA25",
"/@	c #73A815",
"(@	c #74A817",
"_@	c #70A412",
":@	c #86C21E",
"<@	c #70A613",
"[@	c #85C01B",
"}@	c #97D822",
"|@	c #95D822",
"1@	c #9BDD26",
"2@	c #9ADE26",
"3@	c #9EE32C",
"4@	c #9BDF28",
"5@	c #71A817",
"6@	c #72A817",
"7@	c #89C71F",
"8@	c #70A816",
"9@	c #78B01C",
"0@	c #71A613",
"a@	c #83C01C",
"b@	c #9EE02A",
"c@	c #9BDD27",
"d@	c #7EB917",
"e@	c #89C823",
"f@	c #7EB521",
"g@	c #74A818",
"h@	c #80BE18",
"i@	c #8FD21E",
"j@	c #81BD1A",
"k@	c #8ECC26",
"l@	c #92D51F",
"m@	c #9CDE28",
"n@	c #7EBB16",
"o@	c #83C01B",
"p@	c #75AD19",
"q@	c #86BD2A",
"r@	c #73AA18",
"s@	c #93D12C",
"t@	c #93CF29",
"u@	c #7CBB14",
"v@	c #84BC28",
"w@	c #91CD28",
"x@	c #92CF2A",
"y@	c #92D41F",
"z@	c #94D822",
"A@	c #70A614",
"B@	c #71A714",
"C@	c #82BA27",
"D@	c #7AB320",
"E@	c #7BB715",
"F@	c #A1E62E",
"G@	c #80BF1A",
"H@	c #80BD18",
"I@	c #7BB714",
"J@	c #87C21E",
"K@	c #74A716",
"L@	c #7AB220",
"M@	c #8ECB25",
"N@	c #87C21D",
"O@	c #6FA614",
"P@	c #91D720",
"Q@	c #8FD11C",
"R@	c #8DD01B",
"S@	c #9ADC25",
"T@	c #85C21C",
"U@	c #78AF1D",
"V@	c #7FBC19",
"W@	c #95DB23",
"X@	c #7AB01F",
"Y@	c #78B410",
"Z@	c #87C520",
"`@	c #81B825",
" #	c #6FA515",
".#	c #96D924",
"+#	c #97DA25",
"@#	c #95D61F",
"##	c #7EBB15",
"$#	c #9ADB25",
"%#	c #75AB18",
"&#	c #93CF2B",
"*#	c #90D31D",
"=#	c #75AA1A",
"-#	c #89C721",
";#	c #88C41E",
">#	c #7AB01D",
",#	c #81B522",
"'#	c #80BD19",
")#	c #6DA311",
"!#	c #90D41E",
"~#	c #82BE1A",
"{#	c #85C11C",
"]#	c #9ADF27",
"^#	c #81BD18",
"/#	c #79AE1C",
"(#	c #83BF19",
"_#	c #6EA513",
":#	c #80BB18",
"<#	c #95D922",
"[#	c #99DC25",
"}#	c #91D51F",
"|#	c #93D721",
"1#	c #71A815",
"2#	c #92D61F",
"3#	c #74AA1A",
"4#	c #7FBE19",
"5#	c #95D521",
"6#	c #9CE22A",
"7#	c #7FBA17",
"8#	c #83B925",
"9#	c #74A917",
"0#	c #9CDF27",
"a#	c #7EBC17",
"b#	c #82BF18",
"c#	c #8FCD27",
"d#	c #89CB15",
"e#	c #83C01A",
"f#	c #A1E52D",
"g#	c #71A916",
"h#	c #99DD27",
"i#	c #84C11D",
"j#	c #80BE1A",
"k#	c #81BE18",
"l#	c #6BA110",
"m#	c #87C621",
"n#	c #86C11C",
"o#	c #73A817",
"p#	c #6AA011",
"q#	c #8ECF1B",
"r#	c #76AD1A",
"s#	c #91CD26",
"t#	c #8ED31C",
"u#	c #7DB11E",
"v#	c #86C41E",
"w#	c #76AA19",
"x#	c #92D620",
"y#	c #9FE12C",
"z#	c #92D51E",
"A#	c #75AC19",
"B#	c #77AB1A",
"C#	c #78AD1A",
"D#	c #7FBD17",
"E#	c #6FA512",
"F#	c #6BA111",
"G#	c #8FD21B",
"H#	c #9CDF28",
"I#	c #78AE1D",
"J#	c #7CB11F",
"K#	c #6FA314",
"L#	c #7DB321",
"M#	c #90D31B",
"N#	c #76AC1B",
"O#	c #9FE12A",
"P#	c #73AA1A",
"Q#	c #9BD430",
"R#	c #679B0C",
"S#	c #6FA615",
"T#	c #81B624",
"U#	c #7FBD18",
"V#	c #8FD11B",
"W#	c #86C01D",
"X#	c #84C11B",
"Y#	c #9CDF2A",
"Z#	c #9EE12A",
"`#	c #89C422",
" $	c #98D630",
".$	c #7DB420",
"+$	c #91CE28",
"@$	c #98DB25",
"#$	c #72A916",
"$$	c #88C421",
"%$	c #7FB523",
"&$	c #6FA313",
"*$	c #96D822",
"=$	c #90D41F",
"-$	c #7EB523",
";$	c #7CB915",
">$	c #6BA00E",
",$	c #8BC721",
"'$	c #8ACE16",
")$	c #89C621",
"!$	c #7FBC18",
"~$	c #77AD1C",
"{$	c #93D620",
"]$	c #8CCF19",
"^$	c #80BC16",
"/$	c #77AF1C",
"($	c #70A714",
"_$	c #85C31C",
":$	c #9DDD29",
"<$	c #82C21D",
"[$	c #7FBB15",
"}$	c #7CB916",
"|$	c #78AD1C",
"1$	c #88C620",
"2$	c #8BC722",
"3$	c #84C21D",
"4$	c #74A918",
"5$	c #85C31D",
"6$	c #95D821",
"7$	c #97DA21",
"8$	c #75AB1B",
"9$	c #85BB29",
"0$	c #77AC1B",
"a$	c #8DCF1B",
"b$	c #9CE02B",
"c$	c #9EE22C",
"d$	c #90CE27",
"e$	c #92D41E",
"  . + @ # $ % & * = - ; > * , ' ) ! ~ { ] ^ / ( _ : < [ } | 1 2 ",
"3 4 5 6 7 8 9 0 a b c d e f g h i j k l m n o p q r s t u v w x ",
"y i z A B C D E F G H I J A K a L M N O P Q R S T U U V W X Y Z ",
"` A  .A d ..+.@.#.$.%.&.*.A =.A -.t ;.>.,.'.).!.~.{.J V ].X ^./.",
"Y A g A A (._.:.<.[.}.|.A A b A 1.n 2.].3.4.5.6., ].7.8.9.0.q a.",
"b.A A A A A c.d.e.f.g.A A A A A < v ].h.i.j.k.t . l.;.m.n.o.p.q.",
"r.s.t.u.A v.A w.x.A A v.A y.z.1 A.B.C.D.E.F.G.H.I.J.K.L.( M.N.O.",
"p P.Q.A A R.v.A A S.v.R.A A y T.U.V.W.X.Y.Z.`.<  +.+++@+#+$+E %+",
"&+*+] =+-+S.R.R.R.S.S.;+>+,+'+)+!+~+{+]+^+/+(+_+:+<+[+N ..}+|+1+",
"2+3+3 L.# R.R.R.4+S.5+q.6+7+,+8+9+0+a+U b+c+d+b e+f+g+h+|+i+j+x ",
"c Y.k+l+4+4+S.S.S.S.m+n+o+p+q+r+|.s+1 o.e M /.: t+u+v+- w+Y v+$.",
"x+9+< y+S.S.S.S.S.S.z+0+A+B+a+C+D+E+F+; b+9 G+* H+I+v+1 1 J+9 l.",
"K+L+g.M+N+S.S.S.S.S.b o+T.9+O+P+Q+R+S+T+^.2.U+V+&+W+X+Y+X Z+`+e.",
"t  @h+++.@+@R.R.S.S.S.- @@#@$@%@y E ].&@*@_ =@-@;@>@,@'@}+: )@!@",
"~@{@]@~.^@/@(@R.R.S.S.S./+k+_@:@<@v+[@}@z ^.. a+|@|.k+Y 1@2@(@3@",
"4@n+r.5@6@^+7@R.R.S.S.S.S.S.S.S.S.S.S.S.S.S.S.S.S.8@9@0@a@G.. b@",
"c@d@e@f@g@h@{ R.R.S.S.S.S.S.S.S.S.S.S.S.S.S.S.S.S.S.S.!@+ S.H i@",
"|+j@E+) k@l@m@R.R.R.S.S.S.S.S.S.S.S.S.S.S.S.S.S.S.S.S.S.S.S.n@o@",
"K.^.p@q@J W.'.$.R.R.S.S.S.S.S.S.S.S.S.S.S.S.S.S.S.S.S.S.S.S.r@s@",
"%.t@3 D u@v@w@x@R.R.S.S.S.S.S.S.S.S.S.S.S.S.S.S.S.S.S.S.S.y@z@A@",
" +B@J+^+@ C@D@E@A R.R.S.S.S.S.S.S.S.S.S.S.S.S.S.S.S.S.R.F@`+G+2.",
"J+G@D H@I@J@K@L@M@A R.R.S.S.R.R.R.R.R.R.R.R.R.S.S.S.S.R.a@N@c O@",
"U+P@Q@R@S@T@L.:+E.A A R.R.R.U@V@W@X@, 9.Y@A R.R.R.S.S.Z@X `@Y  #",
".#H@* `++#@#[ ##$#A A 5@R.R.%#&#*#=#-#s.y@;#A R.R.R.R.>#,#'#)#!#",
"!+, ~#_.{#, q ]#| ^#A /#R.R.(#_#% 4 :#<#[#}#|#A R.R.R.'#v D+1#2#",
", 3#z.{.4#y 5#6#7#_ A ' R.R.2.x 8#9#g 0#y+[@1 a#R.R.R.R.b#x H c#",
". O@d#Y e#y f#'++ g#A h#/#R.i#j#k#%.l#9+m#n#o#p#A q#R.R.r#7+s#) ",
"r@-#t#u#'+`+v#w#l#x#A w.p.R.y#z#:.U '.U@A#a+B#C#A * w.R.j#D#E#F#",
"R G#H#I#J#@ N+K#L#M#A 0@N#R.A+r#[#O#_+P#Q#R#S#T#A c U#R.V#W#] X#",
"Y#Z#`#G  $o#.$+$@$~ v.#$$$R.q %$&$*$=$Q.D+U#-$;$v.>$,$R.z#'$)$!$",
"f#5.~$I#< @.c#{$]$^$v.X@g@v./$($: |+_$:$<$[$}$|$v.1$A@v.2$Y+H+J ",
".+3$4$g.%#5$6$7$i#S 8$9$r#v.[.K.'.0$X a$b$c$X+8$@ )$)#v.d$6$&+e$"};
