/* XPM */
static char * C:\Users\pc\Desktop\right_xpm[] = {
"32 32 501 2",
"  	c #8AC924",
". 	c #76AD1B",
"+ 	c #80B724",
"@ 	c #76AA1A",
"# 	c #7DB421",
"$ 	c #82B824",
"% 	c #8CC824",
"& 	c #8ED11B",
"* 	c #88C521",
"= 	c #76AA17",
"- 	c #7AB11F",
"; 	c #72A615",
"> 	c #7DBC17",
", 	c #79AF1D",
"' 	c #7CB120",
") 	c #7DB320",
"! 	c #86C320",
"~ 	c #9ADC27",
"{ 	c #93D720",
"] 	c #87C31F",
"^ 	c #83BF1A",
"/ 	c #99DB26",
"( 	c #74AA17",
"_ 	c #7EB422",
": 	c #88C41F",
"< 	c #76AC1A",
"[ 	c #78AE1B",
"} 	c #99DE28",
"| 	c #91D31E",
"1 	c #87C41F",
"2 	c #87CB16",
"3 	c #6DA211",
"4 	c #76AB18",
"5 	c #87C31E",
"6 	c #78B612",
"7 	c #8CCB24",
"8 	c #77AD19",
"9 	c #70A715",
"0 	c #6FA713",
"a 	c #7CB220",
"b 	c #77AE1B",
"c 	c #79AE1D",
"d 	c #8CC822",
"e 	c #7FBB17",
"f 	c #90D21E",
"g 	c #8CC823",
"h 	c #80B623",
"i 	c #7FBC17",
"j 	c #93D61F",
"k 	c #97D924",
"l 	c #8DC925",
"m 	c #8AC02E",
"n 	c #7BB01F",
"o 	c #7DB815",
"p 	c #96DA22",
"q 	c #6EA413",
"r 	c #7EBA16",
"s 	c #6CA111",
"t 	c #8CCA25",
"u 	c #9DE129",
"v 	c #8AC621",
"w 	c #88C621",
"x 	c #88C520",
"y 	c #79B01D",
"z 	c #89C521",
"A 	c #9EE22A",
"B 	c #8CCF1A",
"C 	c #8ED01A",
"D 	c #89C620",
"E 	c #8DCB25",
"F 	c #7FB622",
"G 	c #75AA18",
"H 	c #86C31D",
"I 	c #8AC821",
"J 	c #98DB24",
"K 	c #80BA17",
"L 	c #87C31D",
"M 	c #90CD26",
"N 	c #88C51F",
"O 	c #A79A90",
"P 	c #81BF1A",
"Q 	c #80B823",
"R 	c #7BB11E",
"S 	c #73A818",
"T 	c #85C21E",
"U 	c #6EA514",
"V 	c #88C420",
"W 	c #91D41E",
"X 	c #8BC822",
"Y 	c #77AC1A",
"Z 	c #7BB914",
"` 	c #7BB221",
" .	c #7CB221",
"..	c #6EA512",
"+.	c #6DA312",
"@.	c #9ADE27",
"#.	c #91D620",
"$.	c #8FCA26",
"%.	c #86C11D",
"&.	c #74AA18",
"*.	c #7AB01E",
"=.	c #92D02B",
"-.	c #95D621",
";.	c #8BC824",
">.	c #79AE1C",
",.	c #7AB11E",
"'.	c #72A716",
").	c #74AB18",
"!.	c #71A818",
"~.	c #75AB1A",
"{.	c #72A818",
"].	c #80BC17",
"^.	c #7FB422",
"/.	c #84BA27",
"(.	c #70A514",
"_.	c #70A615",
":.	c #6FA312",
"<.	c #84C01C",
"[.	c #98DC25",
"}.	c #96D923",
"|.	c #86C11E",
"1.	c #7AB21F",
"2.	c #8BCA24",
"3.	c #90D11B",
"4.	c #8FD21B",
"5.	c #75AB19",
"6.	c #8ECD26",
"7.	c #8CC924",
"8.	c #8AC823",
"9.	c #75A919",
"0.	c #87C51F",
"a.	c #7DBA15",
"b.	c #6A9F0F",
"c.	c #81BC17",
"d.	c #7DB915",
"e.	c #72A817",
"f.	c #94D521",
"g.	c #8AC723",
"h.	c #74AA19",
"i.	c #8BCA22",
"j.	c #7EB916",
"k.	c #93D02B",
"l.	c #8DCA24",
"m.	c #79AF1C",
"n.	c #88C622",
"o.	c #8FCE28",
"p.	c #97DA24",
"q.	c #7BB11F",
"r.	c #84C21C",
"s.	c #8ED01C",
"t.	c #7AB613",
"u.	c #72A917",
"v.	c #8AC721",
"w.	c #88C31F",
"x.	c #8CC923",
"y.	c #93D51F",
"z.	c #8ECB24",
"A.	c #76AC1B",
"B.	c #74A817",
"C.	c #78AF1C",
"D.	c #7BB21E",
"E.	c #7EB523",
"F.	c #80BE19",
"G.	c #99DC26",
"H.	c #75AA19",
"I.	c #71A816",
"J.	c #7FBA15",
"K.	c #95D823",
"L.	c #795547",
"M.	c #9CDD28",
"N.	c #99DD26",
"O.	c #78AD1B",
"P.	c #8DCB26",
"Q.	c #99DC28",
"R.	c #89C520",
"S.	c #98DC26",
"T.	c #8AC724",
"U.	c #7CB11F",
"V.	c #88C620",
"W.	c #82BF1C",
"X.	c #7AAF1D",
"Y.	c #80B422",
"Z.	c #79B01C",
"`.	c #81BE19",
" +	c #76AB19",
".+	c #81BE1C",
"++	c #82BE19",
"@+	c #7CB714",
"#+	c #95DA24",
"$+	c #D4C0AA",
"%+	c #AE846E",
"&+	c #7EB322",
"*+	c #93D621",
"=+	c #8DCF1A",
"-+	c #7DB31F",
";+	c #75AC1A",
">+	c #6BA00E",
",+	c #7CB11E",
"'+	c #8BC722",
")+	c #83BF1B",
"!+	c #80BC18",
"~+	c #7EB421",
"{+	c #83B927",
"]+	c #85C21D",
"^+	c #6FA212",
"/+	c #84C11C",
"(+	c #97DA23",
"_+	c #82BF1B",
":+	c #86C31F",
"<+	c #8AC923",
"[+	c #94D721",
"}+	c #8BC924",
"|+	c #7BB814",
"1+	c #7EB622",
"2+	c #7AAE1D",
"3+	c #76AB1A",
"4+	c #7FBF18",
"5+	c #8DCA26",
"6+	c #98DA24",
"7+	c #8DCF19",
"8+	c #93D722",
"9+	c #87C11F",
"0+	c #79B01E",
"a+	c #89C622",
"b+	c #99DB24",
"c+	c #8ECB26",
"d+	c #91CF29",
"e+	c #191715",
"f+	c #6FA514",
"g+	c #94D620",
"h+	c #92D720",
"i+	c #82C01A",
"j+	c #92D61F",
"k+	c #9CE027",
"l+	c #92D51E",
"m+	c #99DD27",
"n+	c #92D22B",
"o+	c #8BCC17",
"p+	c #95D721",
"q+	c #8ECA25",
"r+	c #8CCB25",
"s+	c #7CBA15",
"t+	c #80B723",
"u+	c #90CF29",
"v+	c #7CB320",
"w+	c #7CB21F",
"x+	c #86C31E",
"y+	c #8AC822",
"z+	c #88C61F",
"A+	c #9ADC25",
"B+	c #9CDF27",
"C+	c #80B824",
"D+	c #85BC29",
"E+	c #6FA413",
"F+	c #77AD1B",
"G+	c #8FCD26",
"H+	c #8FD21D",
"I+	c #7BB713",
"J+	c #7CB321",
"K+	c #8BC823",
"L+	c #78AE1C",
"M+	c #83B926",
"N+	c #6FA513",
"O+	c #74AB19",
"P+	c #73A716",
"Q+	c #84BF1C",
"R+	c #6CA110",
"S+	c #86C21E",
"T+	c #92D029",
"U+	c #8BC723",
"V+	c #92CD28",
"W+	c #98D62F",
"X+	c #8CC925",
"Y+	c #7EB522",
"Z+	c #7BB812",
"`+	c #79B611",
" @	c #7BB01E",
".@	c #9ADD27",
"+@	c #7DB522",
"@@	c #8DC924",
"#@	c #89C821",
"$@	c #7EB915",
"%@	c #85C21F",
"&@	c #71A615",
"*@	c #71A513",
"=@	c #7EBB17",
"-@	c #86C21D",
";@	c #7AB814",
">@	c #6EA110",
",@	c #8FCC27",
"'@	c #89C822",
")@	c #84C31C",
"!@	c #8FCB26",
"~@	c #86C813",
"{@	c #699F0F",
"]@	c #8ECA26",
"^@	c #8AC722",
"/@	c #8DD01C",
"(@	c #70A513",
"_@	c #8DCA25",
":@	c #73A815",
"<@	c #89C722",
"[@	c #82C11E",
"}@	c #72A616",
"|@	c #71A715",
"1@	c #74AC1A",
"2@	c #70A412",
"3@	c #70A613",
"4@	c #85C01B",
"5@	c #97D822",
"6@	c #9BDD26",
"7@	c #9ADE26",
"8@	c #9EE32C",
"9@	c #9BDF28",
"0@	c #71A817",
"a@	c #89C71F",
"b@	c #70A816",
"c@	c #78B01C",
"d@	c #71A613",
"e@	c #83C01C",
"f@	c #8DD11B",
"g@	c #9EE02A",
"h@	c #9BDD27",
"i@	c #7EB917",
"j@	c #7EB521",
"k@	c #74A818",
"l@	c #80BB18",
"m@	c #8FD21E",
"n@	c #81BD1A",
"o@	c #82BE1A",
"p@	c #7DB422",
"q@	c #6FA415",
"r@	c #73AA17",
"s@	c #7EBB16",
"t@	c #83C01B",
"u@	c #77AE1C",
"v@	c #6AA110",
"w@	c #8CCA24",
"x@	c #73AA18",
"y@	c #93D12C",
"z@	c #93CF29",
"A@	c #80B725",
"B@	c #93CF2A",
"C@	c #9CE12A",
"D@	c #9CE02A",
"E@	c #92D41F",
"F@	c #94D822",
"G@	c #70A614",
"H@	c #86C41F",
"I@	c #71A714",
"J@	c #80BB17",
"K@	c #90D31E",
"L@	c #A1E62E",
"M@	c #91CE29",
"N@	c #80BF1A",
"O@	c #80BD18",
"P@	c #83BC27",
"Q@	c #8BCE19",
"R@	c #9ADE28",
"S@	c #87C21D",
"T@	c #6FA614",
"U@	c #87C420",
"V@	c #91D720",
"W@	c #8FD11C",
"X@	c #8DD01B",
"Y@	c #8DCB24",
"Z@	c #78AF1D",
"`@	c #7FBC19",
" #	c #95DB23",
".#	c #7AB01F",
"+#	c #77AD1C",
"@#	c #84C31E",
"##	c #87C520",
"$#	c #81B825",
"%#	c #6FA515",
"&#	c #96D924",
"*#	c #97DA25",
"=#	c #85C11D",
"-#	c #8BC923",
";#	c #75AB18",
">#	c #93CF2B",
",#	c #90D31D",
"'#	c #75AA1A",
")#	c #8ECB25",
"!#	c #78AF1B",
"~#	c #79AF1E",
"{#	c #7AB01D",
"]#	c #81B522",
"^#	c #80BD19",
"/#	c #6DA311",
"(#	c #90D41E",
"_#	c #85C11C",
":#	c #81BD18",
"<#	c #7BB220",
"[#	c #7BB712",
"}#	c #83BF19",
"|#	c #6EA513",
"1#	c #99DC25",
"2#	c #93D721",
"3#	c #97DC25",
"4#	c #73A816",
"5#	c #72A714",
"6#	c #71A815",
"7#	c #74AA1A",
"8#	c #7FBA17",
"9#	c #72A717",
"0#	c #6EA312",
"a#	c #83B925",
"b#	c #74A917",
"c#	c #7EBC17",
"d#	c #83C11C",
"e#	c #82BF18",
"f#	c #8FCD27",
"g#	c #89CB15",
"h#	c #A1E52D",
"i#	c #71A916",
"j#	c #84C11D",
"k#	c #80BE1A",
"l#	c #81BE18",
"m#	c #87C621",
"n#	c #73A817",
"o#	c #6AA011",
"p#	c #91D41D",
"q#	c #8ECF1B",
"r#	c #7AB220",
"s#	c #76AD1A",
"t#	c #91CD26",
"u#	c #89C721",
"v#	c #8ED31C",
"w#	c #7DB11E",
"x#	c #86C41E",
"y#	c #6BA110",
"z#	c #92D620",
"A#	c #8BCD18",
"B#	c #84C01B",
"C#	c #9FE12C",
"D#	c #75AC19",
"E#	c #77AB1A",
"F#	c #78AD1A",
"G#	c #8CC723",
"H#	c #7FBD17",
"I#	c #6FA512",
"J#	c #6BA111",
"K#	c #9CDF28",
"L#	c #78AE1D",
"M#	c #7DB321",
"N#	c #90D31B",
"O#	c #7AB611",
"P#	c #9FE12A",
"Q#	c #73AA1A",
"R#	c #9BD430",
"S#	c #6FA615",
"T#	c #81B624",
"U#	c #7FBD18",
"V#	c #8FD11B",
"W#	c #86C01D",
"X#	c #84C11B",
"Y#	c #9CDF2A",
"Z#	c #9EE12A",
"`#	c #89C422",
" $	c #7DB420",
".$	c #98DB25",
"+$	c #72A916",
"@$	c #88C421",
"#$	c #98DD25",
"$$	c #7FB523",
"%$	c #6FA313",
"&$	c #96D822",
"*$	c #7CB915",
"=$	c #8BC721",
"-$	c #7EB814",
";$	c #8ACE16",
">$	c #89C621",
",$	c #7FBC18",
"'$	c #8CCF19",
")$	c #80BC16",
"!$	c #75AC17",
"~$	c #77AF1C",
"{$	c #70A714",
"]$	c #9DDD29",
"^$	c #82C21D",
"/$	c #7CB916",
"($	c #78AD1C",
"_$	c #73A918",
":$	c #94D821",
"<$	c #7DBA16",
"[$	c #84C21D",
"}$	c #74A918",
"|$	c #85C31D",
"1$	c #95D821",
"2$	c #97DA21",
"3$	c #75AB1B",
"4$	c #85BB29",
"5$	c #77AC1B",
"6$	c #8DCF1B",
"7$	c #9CE02B",
"8$	c #9EE22C",
"9$	c #96D823",
"0$	c #82C11D",
"a$	c #90CE27",
"b$	c #92D41E",
"  . + @ # $ % & * = - ; > * , ' ) ! ~ { ] ^ / ( _ : < [ } | 1 2 ",
"3 4 5 6 7 8 9 0 a b c d e f g h i j k l m n o p q r s t u v w x ",
"y i z A B C D E F G H I J K L a M N O P Q R S T U V V W O X Y Z ",
"`  ...+.d @.#.$.%.&.*.=.-.X ;.>.O t O ,.'.).!.~.{.].J W O X O ^.",
"Y /.g (._.:.<.[.}.|.1.2.3.4.b 5.O n O O 6.7.8.9., 0.a.O O b.O c.",
"d.e.f.g.h.*.i.j.k.l.m.n.o.p.q.r.O O O O O s.t.t . u.O O O O O v.",
"w.x.y.z.A.'.B.C.D._ E.*.F.G.H.1 I.J.K.O L.O O M.N.O L.O ( O.P.Q.",
"p R.S.T.U.V.W.X.Y.Z.`.E. +.+y ++@+#+O O $+L.%+O O L.$+O O &+E p.",
"*+=+] -+;+>+,+c '+e )+!+~+{+]+^+/+(+_+:+5.%+%+$+$+$+%+<+@.[+}+|+",
"1+2+3 3+# 4+5+x 6+7+8+v.9+0+{+_.a+b+c+V q.d+%+e+$+$+$+f+}+g+h+x ",
"c i+(.+.V.j+k+l+m+n+o+p+q+r+s+t+2.u+1 v+e N %+%+%+%+e+e+w+Y x+&.",
"y+a+< z+A+B+C+D+E+F+G+b+H+I+c+J+K+L+M+; q.9 %+%+%+%+%+%+1 N+9 u.",
"O+P+m.Q+R+S+V.H T+U+b q+++a+V+W+X+Y+Z+`+ @h.%+%+%+%+%+.@X +@@@k.",
"t #@f+F+$@%@m.&@*@=@-@- ;@r.>@,@y E 0.'@)@%+%+%+$+$+!@~@[+: {@]@",
"^@/@(@{._@:@B.<@[@}@5.|@1@(.2@S+3@x+4@5@%+%+%+$+$+2.(.Y 6@7@B.8@",
"9@p+w.0@e.5.a@%+%+%+%+%+%+%+%+%+%+%+%+%+%+%+%+$+$+b@c@d@e@f@. g@",
"h@i@%+j@k@%+%+%+%+%+%+%+%+%+%+%+%+%+%+%+%+%+%+$+$+w+M ]@+ l@H m@",
"}+n@%+%+%+%+%+%+%+%+%+%+%+%+%+%+%+%+%+%+%+%+$+$+$+o@p@q@k@r@s@t@",
"u@ @%+%+%+%+%+%+%+%+%+%+%+%+%+%+%+%+%+%+%+%+$+$+_+_+v@w@_@Y x@y@",
"*.z@3 %+%+%+%+%+%+%+%+%+%+%+%+%+%+%+%+%+%+%+$+$+^@A@B@C@D@E@F@G@",
"H@I@N+5.$+%+%+%+%+%+%+%+%+%+%+%+%+%+%+%+%+$+$+O &.J@H@K@L@@@M@h.",
"N+N@D O@$+%+%+%+%+$+$+$+$+$+$+$+$+$+%+%+$+$+O g.P@H Q@R@e@S@c T@",
"U@V@W@X@A+%+%+$+$+$+O k.Y@9 Z@`@ #.#$+$+$+O O  ++#G @###X $#Y %#",
"&#O@* @@*#$+$+$+$+O =#0@5 -#;#>#,#'#$+$+E@O O )#!#u.~#{#]#^#/#(#",
"/+, o@<._#$+$+$+O :#D >.<#[#}#|#% 4 $+$+1#O 2#3#1 4#5#^#v K+6#j+",
", 7#H.].$+$+$+$+8#_ 9#' 0#a h.x a#b#$+$+z+O 1 c#}.d#/.H e#x H f#",
". T@g#Y $+$+h#O + i#7+m+>.D j#k#l#*.$+a+m#O n#o#p#q#{#r#s#0+t#) ",
"x@u#v#w#$+@@x#O y#z#A#C.4#B#C#l+[.V $+Z@D#O E#F#G#* C.c#k#H#I#J#",
"S 4.K#L#$+@ R+O M#N#O#d@A.F@H+s#1#P#$+Q#R#O S#T#3+c U#w@V#W#] X#",
"Y#Z#`#G $+n# $L..$~  @+$@$#$q $$%$&$$+S.K+L.E.*$m.>+=$-$l+;$>$,$",
"h#8.+#L#L.$.f#L.'$)$] .#k@!$~${$: }+L.]$^$L./$($_$V.G@H '+.@:$J ",
"<$[$}$m.L.|$1$2$j#T 3$4$s#_$|.u@).5$L.6$7$8$9$3$@ >$/#0$a$1$*+b$"};
