/* XPM */
static char * C:\Users\pc\Desktop\down_xpm[] = {
"32 32 545 2",
"  	c #8AC924",
". 	c #76AD1B",
"+ 	c #80B724",
"@ 	c #76AA1A",
"# 	c #7DB421",
"$ 	c #82B824",
"% 	c #8CC824",
"& 	c #8ED11B",
"* 	c #88C521",
"= 	c #76AA17",
"- 	c #7AB11F",
"; 	c #72A615",
"> 	c #7DBC17",
", 	c #79AF1D",
"' 	c #7CB120",
") 	c #7DB320",
"! 	c #86C320",
"~ 	c #9ADC27",
"{ 	c #93D720",
"] 	c #87C31F",
"^ 	c #83BF1A",
"/ 	c #99DB26",
"( 	c #74AA17",
"_ 	c #7EB422",
": 	c #88C41F",
"< 	c #76AC1A",
"[ 	c #78AE1B",
"} 	c #99DE28",
"| 	c #91D31E",
"1 	c #87C41F",
"2 	c #87CB16",
"3 	c #6DA211",
"4 	c #76AB18",
"5 	c #87C31E",
"6 	c #78B612",
"7 	c #8CCB24",
"8 	c #77AD19",
"9 	c #70A715",
"0 	c #6FA713",
"a 	c #7CB220",
"b 	c #77AE1B",
"c 	c #79AE1D",
"d 	c #8CC822",
"e 	c #7FBB17",
"f 	c #90D21E",
"g 	c #8CC823",
"h 	c #80B623",
"i 	c #7FBC17",
"j 	c #93D61F",
"k 	c #97D924",
"l 	c #8DC925",
"m 	c #8AC02E",
"n 	c #7BB01F",
"o 	c #7DB815",
"p 	c #96DA22",
"q 	c #6EA413",
"r 	c #7EBA16",
"s 	c #6CA111",
"t 	c #8CCA25",
"u 	c #9DE129",
"v 	c #8AC621",
"w 	c #88C621",
"x 	c #88C520",
"y 	c #79B01D",
"z 	c #89C521",
"A 	c #9EE22A",
"B 	c #8CCF1A",
"C 	c #8ED01A",
"D 	c #89C620",
"E 	c #A79A90",
"F 	c #7FB622",
"G 	c #86C31D",
"H 	c #8AC821",
"I 	c #98DB24",
"J 	c #80BA17",
"K 	c #AE846E",
"L 	c #191715",
"M 	c #8AC923",
"N 	c #81BF1A",
"O 	c #80B823",
"P 	c #7BB11E",
"Q 	c #85C21E",
"R 	c #88C420",
"S 	c #91D41E",
"T 	c #8FD31C",
"U 	c #8BC822",
"V 	c #77AC1A",
"W 	c #7BB914",
"X 	c #7BB221",
"Y 	c #7CB221",
"Z 	c #6EA512",
"` 	c #6DA312",
" .	c #9ADE27",
"..	c #91D620",
"+.	c #86C11D",
"@.	c #92D02B",
"#.	c #95D621",
"$.	c #D4C0AA",
"%.	c #7AB11E",
"&.	c #72A716",
"*.	c #75AB1A",
"=.	c #80BC17",
"-.	c #87C51F",
";.	c #7BB01E",
">.	c #7FB422",
",.	c #84BA27",
"'.	c #70A514",
").	c #70A615",
"!.	c #6FA312",
"~.	c #84C01C",
"{.	c #7DBA15",
"].	c #8ED01B",
"^.	c #81BE19",
"/.	c #6A9F0F",
"(.	c #81BC17",
"_.	c #7DB915",
":.	c #72A817",
"<.	c #94D521",
"[.	c #8AC723",
"}.	c #74AA19",
"|.	c #7AB01E",
"1.	c #8BCA22",
"2.	c #7EB916",
"3.	c #93D02B",
"4.	c #795547",
"5.	c #72A917",
"6.	c #73A917",
"7.	c #85C31E",
"8.	c #93D32B",
"9.	c #7CB320",
"0.	c #73A816",
"a.	c #8AC721",
"b.	c #88C31F",
"c.	c #8CC923",
"d.	c #93D51F",
"e.	c #8ECB24",
"f.	c #76AC1B",
"g.	c #74A817",
"h.	c #78AF1C",
"i.	c #7BB21E",
"j.	c #7EB523",
"k.	c #80BE19",
"l.	c #8ACC19",
"m.	c #95D923",
"n.	c #9EE32D",
"o.	c #8DD11B",
"p.	c #9CDD28",
"q.	c #99DD26",
"r.	c #7DB11D",
"s.	c #77AE1C",
"t.	c #76AB1A",
"u.	c #78AD1B",
"v.	c #8DCB26",
"w.	c #99DC28",
"x.	c #89C520",
"y.	c #98DC26",
"z.	c #8AC724",
"A.	c #7CB11F",
"B.	c #88C620",
"C.	c #82BF1C",
"D.	c #7AAF1D",
"E.	c #80B422",
"F.	c #79B01C",
"G.	c #76AB19",
"H.	c #90D31E",
"I.	c #82C01A",
"J.	c #71A715",
"K.	c #7BB220",
"L.	c #86C41F",
"M.	c #7DBA16",
"N.	c #77AD1B",
"O.	c #7FB916",
"P.	c #90CF28",
"Q.	c #7EB322",
"R.	c #8DCB25",
"S.	c #97DA24",
"T.	c #93D621",
"U.	c #8DCF1A",
"V.	c #7DB31F",
"W.	c #75AC1A",
"X.	c #6BA00E",
"Y.	c #7CB11E",
"Z.	c #8BC722",
"`.	c #83BF1B",
" +	c #80BC18",
".+	c #75AB19",
"++	c #74AC1A",
"@+	c #74A91A",
"#+	c #87C41E",
"$+	c #71A514",
"%+	c #6EA310",
"&+	c #73A916",
"*+	c #94D721",
"=+	c #8BC924",
"-+	c #7BB814",
";+	c #7EB622",
">+	c #7AAE1D",
",+	c #7FBF18",
"'+	c #8DCA26",
")+	c #98DA24",
"!+	c #8DCF19",
"~+	c #93D722",
"{+	c #7BB11F",
"]+	c #91CF29",
"^+	c #90CD27",
"/+	c #86BE2A",
"(+	c #81B723",
"_+	c #7EB321",
":+	c #6FA514",
"<+	c #94D620",
"[+	c #92D720",
"}+	c #92D61F",
"|+	c #9CE027",
"1+	c #92D51E",
"2+	c #99DD27",
"3+	c #92D22B",
"4+	c #8BCC17",
"5+	c #95D721",
"6+	c #88C51F",
"7+	c #7FBB18",
"8+	c #86C31E",
"9+	c #7CB21F",
"0+	c #74AA18",
"a+	c #8AC822",
"b+	c #89C622",
"c+	c #88C61F",
"d+	c #9ADC25",
"e+	c #9CDF27",
"f+	c #80B824",
"g+	c #85BC29",
"h+	c #6FA413",
"i+	c #8FCD26",
"j+	c #99DB24",
"k+	c #91CE29",
"l+	c #94D821",
"m+	c #6FA513",
"n+	c #74AB19",
"o+	c #73A716",
"p+	c #79AF1C",
"q+	c #84BF1C",
"r+	c #6CA110",
"s+	c #86C21E",
"t+	c #92D029",
"u+	c #8BC723",
"v+	c #8ECA25",
"w+	c #82BE19",
"x+	c #79B611",
"y+	c #87C420",
"z+	c #9DDF29",
"A+	c #9FE22A",
"B+	c #96D823",
"C+	c #9ADD27",
"D+	c #7DB522",
"E+	c #8DC924",
"F+	c #89C821",
"G+	c #7EB915",
"H+	c #85C21F",
"I+	c #71A615",
"J+	c #71A513",
"K+	c #7EBB17",
"L+	c #86C21D",
"M+	c #7AB814",
"N+	c #89C822",
"O+	c #84C31C",
"P+	c #86C520",
"Q+	c #95D620",
"R+	c #92D31F",
"S+	c #91CF28",
"T+	c #8FCB26",
"U+	c #86C813",
"V+	c #699F0F",
"W+	c #8ECA26",
"X+	c #8AC722",
"Y+	c #8DD01C",
"Z+	c #70A513",
"`+	c #72A818",
" @	c #8DCA25",
".@	c #73A815",
"+@	c #89C722",
"@@	c #82C11E",
"#@	c #72A616",
"$@	c #97D822",
"%@	c #8ECB26",
"&@	c #95D822",
"*@	c #8BCA24",
"=@	c #9BDD26",
"-@	c #9ADE26",
";@	c #9EE32C",
">@	c #9BDF28",
",@	c #71A817",
"'@	c #89C71F",
")@	c #9DE12A",
"!@	c #91D420",
"~@	c #99DB25",
"{@	c #91D41C",
"]@	c #8CCA24",
"^@	c #7FB724",
"/@	c #89C721",
"(@	c #85C21D",
"_@	c #70A816",
":@	c #78B01C",
"<@	c #71A613",
"[@	c #83C01C",
"}@	c #9EE02A",
"|@	c #9BDD27",
"1@	c #7EB917",
"2@	c #89C823",
"3@	c #7EB521",
"4@	c #74A818",
"5@	c #80BE18",
"6@	c #97DD24",
"7@	c #97D823",
"8@	c #94D71F",
"9@	c #8ECC26",
"0@	c #8ECB25",
"a@	c #9BDF29",
"b@	c #9EE22B",
"c@	c #83C01B",
"d@	c #7AB31F",
"e@	c #90CD26",
"f@	c #80BB18",
"g@	c #8FD21E",
"h@	c #81BD1A",
"i@	c #78AE1C",
"j@	c #92D51F",
"k@	c #9CDE28",
"l@	c #86C21C",
"m@	c #9ADD26",
"n@	c #87C620",
"o@	c #7DB422",
"p@	c #8BC824",
"q@	c #9BDE28",
"r@	c #99DC26",
"s@	c #82BE1A",
"t@	c #6FA415",
"u@	c #73AA17",
"v@	c #7EBB16",
"w@	c #75AD19",
"x@	c #86BD2A",
"y@	c #96D922",
"z@	c #74AB18",
"A@	c #92CF29",
"B@	c #84C11B",
"C@	c #90D21B",
"D@	c #92CF28",
"E@	c #82BF1B",
"F@	c #6AA110",
"G@	c #73AA18",
"H@	c #93D12C",
"I@	c #93CF29",
"J@	c #7CBB14",
"K@	c #84BC28",
"L@	c #91CD28",
"M@	c #92CF2A",
"N@	c #76AE1B",
"O@	c #71A717",
"P@	c #79AE1C",
"Q@	c #77AC1B",
"R@	c #97D922",
"S@	c #94D722",
"T@	c #80B725",
"U@	c #93CF2A",
"V@	c #9CE12A",
"W@	c #9CE02A",
"X@	c #92D41F",
"Y@	c #94D822",
"Z@	c #70A614",
"`@	c #71A714",
" #	c #82BA27",
".#	c #7AB320",
"+#	c #7BB715",
"@#	c #7FBD17",
"##	c #84BA29",
"$#	c #80BB17",
"%#	c #A1E62E",
"&#	c #80BF1A",
"*#	c #80BD18",
"=#	c #7BB714",
"-#	c #87C21E",
";#	c #74A716",
">#	c #7AB220",
",#	c #7DB220",
"'#	c #7DB321",
")#	c #82BE1C",
"!#	c #74AC19",
"~#	c #7AB01D",
"{#	c #83BC27",
"]#	c #8BCE19",
"^#	c #9ADE28",
"/#	c #87C21D",
"(#	c #6FA614",
"_#	c #91D720",
":#	c #8FD11C",
"<#	c #8DD01B",
"[#	c #85C21C",
"}#	c #8DD11A",
"|#	c #99DB27",
"1#	c #78B410",
"2#	c #77AD1C",
"3#	c #75AA18",
"4#	c #84C31E",
"5#	c #87C520",
"6#	c #81B825",
"7#	c #6FA515",
"8#	c #96D924",
"9#	c #97DA25",
"0#	c #95D61F",
"a#	c #7EBB15",
"b#	c #9ADB25",
"c#	c #95D428",
"d#	c #85C11D",
"e#	c #88C41E",
"f#	c #78B510",
"g#	c #78AF1B",
"h#	c #79AF1E",
"i#	c #81B522",
"j#	c #80BD19",
"k#	c #6DA311",
"l#	c #90D41E",
"m#	c #84C11C",
"n#	c #85C11C",
"o#	c #9ADF27",
"p#	c #81BD18",
"q#	c #99DC25",
"r#	c #91D51F",
"s#	c #93D721",
"t#	c #97DC25",
"u#	c #72A714",
"v#	c #8BC823",
"w#	c #71A815",
"x#	c #74AA1A",
"y#	c #75AA19",
"z#	c #7FBE19",
"A#	c #95D521",
"B#	c #9CE22A",
"C#	c #7FBA17",
"D#	c #72A717",
"E#	c #83B925",
"F#	c #74A917",
"G#	c #85C01B",
"H#	c #7EBC17",
"I#	c #96D923",
"J#	c #83C11C",
"K#	c #82BF18",
"L#	c #8FCD27",
"M#	c #89CB15",
"N#	c #83C01A",
"O#	c #A1E52D",
"P#	c #71A916",
"Q#	c #84C11D",
"R#	c #80BE1A",
"S#	c #81BE18",
"T#	c #87C621",
"U#	c #86C11C",
"V#	c #73A817",
"W#	c #6AA011",
"X#	c #91D41D",
"Y#	c #8ECF1B",
"Z#	c #76AD1A",
"`#	c #79B01E",
" $	c #91CD26",
".$	c #8ED31C",
"+$	c #7DB11E",
"@$	c #86C41E",
"#$	c #76AA19",
"$$	c #6BA110",
"%$	c #92D620",
"&$	c #8BCD18",
"*$	c #9FE12C",
"=$	c #98DC25",
"-$	c #78AF1D",
";$	c #75AC19",
">$	c #77AB1A",
",$	c #78AD1A",
"'$	c #8CC723",
")$	c #6FA512",
"!$	c #6BA111",
"~$	c #73A818",
"{$	c #8FD21B",
"]$	c #9CDF28",
"^$	c #78AE1D",
"/$	c #6FA314",
"($	c #90D31B",
"_$	c #7AB611",
":$	c #8FD21D",
"<$	c #9FE12A",
"[$	c #73AA1A",
"}$	c #9BD430",
"|$	c #679B0C",
"1$	c #6FA615",
"2$	c #81B624",
"3$	c #7FBD18",
"4$	c #8FD11B",
"5$	c #86C01D",
"6$	c #9CDF2A",
"7$	c #9EE12A",
"8$	c #89C422",
"9$	c #98D630",
"0$	c #7DB420",
"a$	c #91CE28",
"b$	c #98DB25",
"c$	c #72A916",
"d$	c #88C421",
"e$	c #98DD25",
"f$	c #7FB523",
"g$	c #6FA313",
"h$	c #96D822",
"i$	c #90D41F",
"j$	c #7CB915",
"k$	c #8BC721",
"l$	c #7EB814",
"m$	c #8ACE16",
"n$	c #89C621",
"o$	c #7FBC18",
"p$	c #8AC823",
"q$	c #8FCA26",
"r$	c #93D620",
"s$	c #8CCF19",
"t$	c #80BC16",
"u$	c #7AB01F",
"v$	c #75AC17",
"w$	c #77AF1C",
"x$	c #70A714",
"y$	c #85C31C",
"z$	c #9DDD29",
"A$	c #82C21D",
"B$	c #7FBB15",
"C$	c #7CB916",
"D$	c #78AD1C",
"E$	c #73A918",
"F$	c #84C21D",
"G$	c #74A918",
"H$	c #75AB18",
"I$	c #85C31D",
"J$	c #95D821",
"K$	c #97DA21",
"L$	c #75AB1B",
"M$	c #85BB29",
"N$	c #86C11E",
"O$	c #8DCF1B",
"P$	c #9CE02B",
"Q$	c #9EE22C",
"R$	c #82C11D",
"S$	c #90CE27",
"T$	c #92D41E",
"  . + @ # $ % & * = - ; > * , ' ) ! ~ { ] ^ / ( _ : < [ } | 1 2 ",
"3 4 5 6 7 8 9 0 a b c d e f g h i j k l m n o p q r s t u v w x ",
"y i z A B C D E F E G H I J K L L K M N O P E Q E R R S T U V W ",
"X Y Z ` d  ...E +.E E @.#.K K $.$.K K %.&.E E *.E =.I S -.U ;.>.",
"V ,.g '.).!.~.E E E E E E K E E E E K E E E E E E -.{.].^./.q (.",
"_.:.<.[.}.|.1.2.3.E E 4.E E E E E E E E 4.E E t . 5.6.7.8.9.0.a.",
"b.c.d.e.f.&.g.h.i._ j.|.k.K K K K K K l.m.n.o.p.q.r.s.t.( u.v.w.",
"p x.y.z.A.B.C.D.E.F.^.j.G.K K K K K K H.I.J.K.< L.M.N.O.P.Q.R.S.",
"T.U.] V.W.X.Y.c Z.e `. +K K K K K K K K .+++@+#+$+%+&+M  .*+=+-+",
";+>+3 t.# ,+'+x )+!+~+a.K K K K K K K K {+]+^+b /+(+_+:+=+<+[+x ",
"c I.'.` B.}+|+1+2+3+4+5+K K K K K K K K e 6+>.: `.7+8+- 9+V 8+0+",
"a+b+< c+d+e+f+g+h+N.i+j+K K K K K K K K {+9 k+* l+A 8+1 1 m+9 5.",
"n+o+p+q+r+s+B.G t+u+b v+w+K K K K K K x+;.}.y+z+T.A+B+C+U D+E+3.",
"t F+:+N.G+H+p+I+J+K+L+- M+K K K K K K N+O+_ P+Q+R+S+T+U+*+: V+W+",
"X+Y+Z+`+ @.@g.+@@@#@.+J.++K K K K K K $@z ;.. %@&@*@'.V =@-@g.;@",
">@5+b.,@:..+'@)@!@R.1 }.5.K K K K K K ~@{@]@^@/@(@_@:@<@[@o.. }@",
"|@1@2@3@4@5@{ 6@7@8@9@< G K K K K K K 0@a@b@c@d@< 9+e@W++ f@G g@",
"=+h@i@) 9@j@k@l@2.m@n@o@K K K K K K K K p@q@r@- u.s@o@t@4@u@v@c@",
"s.;.w@x@I y@z@0+A@B@( &+K K K K K K K K $+s+C@D@E@E@F@]@ @V G@H@",
"|.I@3 D J@K@L@M@Z+N@O@P@K K K K K K K K J.Q@R@S@X+T@U@V@W@X@Y@Z@",
"L.`@m+.+@  #.#+#@#[@g g K K K K K K K K I+##2+Z.0+$#L.H.%#E+k+}.",
"m+&#D *#=#-#;#>#0@,#'#)#K K K K K K K K !#~#n [.{#G ]#^#[@/#c (#",
"y+_#:#<#d+[#t.$+m.}#|#3.$.K K K K K K $.1#d ] G.2#3#4#5#U 6#V 7#",
"8#*#* E+9#0#[ a#b#c#d#,@$.$.K K K K $.$.X@e#f#0@g#5.h#~#i#j#k#l#",
"m#, s@~.n#, q o#| p#D P@$.$.$.K K $.$.$.q#r#s#t#1 0.u#j#v v#w#}+",
", x#y#=.z#y A#B#C#_ D#' $.$.}.x E#F#$.$.c+G#1 H#I#J#,.G K#x G L#",
". (#M#V N#y O#(@+ P#!+2+P@$.Q#R#S#|.$.b+T#U#V#W#X#Y#~#>#Z#`# $) ",
"G@/@.$+$(@E+@$#$$$%$&$h.0.4.*$1+=$R 4.-$;$%@>$,$'$* h.H#R#@#)$!$",
"~${$]$^$A.@ r+/$'#($_$<@f.4.:$Z#q#<$4.[$}$|$1$2$t.c 3$]@4$5$] B@",
"6$7$8$3#9$V#0$a$b$~ ;.c$d$e$q f$g$h$i$y.v#3$j.j$p+X.k$l$1+m$n$o$",
"O#p$2#^$< q$L#r$s$t$] u$4@v$w$x$: =+y$z$A$B$C$D$E$B.Z@G Z.C+l+I ",
"M.F$G$p+H$I$J$K$Q#Q L$M$Z#E$N$s.z@Q@U O$P$Q$B+L$@ n$k#R$S$J$T.T$"};
