/* XPM */
static char * C:\Users\Leonardo\Downloads\assets\map\collect_xpm[] = {
"32 32 424 2",
"  	c #8AC924",
". 	c #76AD1B",
"+ 	c #80B724",
"@ 	c #76AA1A",
"# 	c #7DB421",
"$ 	c #82B824",
"% 	c #8CC824",
"& 	c #8ED11B",
"* 	c #88C521",
"= 	c #76AA17",
"- 	c #7AB11F",
"; 	c #72A615",
"> 	c #7DBC17",
", 	c #79AF1D",
"' 	c #7CB120",
") 	c #7DB320",
"! 	c #86C320",
"~ 	c #9ADC27",
"{ 	c #93D720",
"] 	c #87C31F",
"^ 	c #83BF1A",
"/ 	c #99DB26",
"( 	c #74AA17",
"_ 	c #7EB422",
": 	c #88C41F",
"< 	c #76AC1A",
"[ 	c #78AE1B",
"} 	c #99DE28",
"| 	c #91D31E",
"1 	c #87C41F",
"2 	c #87CB16",
"3 	c #6DA211",
"4 	c #76AB18",
"5 	c #87C31E",
"6 	c #78B612",
"7 	c #8CCB24",
"8 	c #77AD19",
"9 	c #70A715",
"0 	c #6FA713",
"a 	c #7CB220",
"b 	c #77AE1B",
"c 	c #79AE1D",
"d 	c #8CC822",
"e 	c #7FBB17",
"f 	c #90D21E",
"g 	c #8CC823",
"h 	c #80B623",
"i 	c #7FBC17",
"j 	c #93D61F",
"k 	c #97D924",
"l 	c #8DC925",
"m 	c #8AC02E",
"n 	c #7BB01F",
"o 	c #7DB815",
"p 	c #96DA22",
"q 	c #6EA413",
"r 	c #7EBA16",
"s 	c #6CA111",
"t 	c #8CCA25",
"u 	c #9DE129",
"v 	c #8AC621",
"w 	c #88C621",
"x 	c #88C520",
"y 	c #79B01D",
"z 	c #89C521",
"A 	c #9EE22A",
"B 	c #8CCF1A",
"C 	c #8ED01A",
"D 	c #89C620",
"E 	c #8DCB25",
"F 	c #7FB622",
"G 	c #75AA18",
"H 	c #86C31D",
"I 	c #8AC821",
"J 	c #98DB24",
"K 	c #80BA17",
"L 	c #87C31D",
"M 	c #90CD26",
"N 	c #88C51F",
"O 	c #8AC923",
"P 	c #81BF1A",
"Q 	c #80B823",
"R 	c #7BB11E",
"S 	c #73A818",
"T 	c #85C21E",
"U 	c #6EA514",
"V 	c #88C420",
"W 	c #91D41E",
"X 	c #8FD31C",
"Y 	c #8BC822",
"Z 	c #77AC1A",
"` 	c #7BB914",
" .	c #7BB221",
"..	c #7CB221",
"+.	c #6EA512",
"@.	c #6DA312",
"#.	c #9ADE27",
"$.	c #91D620",
"%.	c #8FCA26",
"&.	c #86C11D",
"*.	c #74AA18",
"=.	c #7AB01E",
"-.	c #92D02B",
";.	c #95D621",
">.	c #8BC824",
",.	c #79AE1C",
"'.	c #71A615",
").	c #73A917",
"!.	c #7AB11E",
"~.	c #72A716",
"{.	c #74AB18",
"].	c #71A818",
"^.	c #75AB1A",
"/.	c #72A818",
"(.	c #80BC17",
"_.	c #87C51F",
":.	c #7BB01E",
"<.	c #7FB422",
"[.	c #84BA27",
"}.	c #70A514",
"|.	c #70A615",
"1.	c #6FA312",
"2.	c #84C01C",
"3.	c #98DC25",
"4.	c #96D923",
"5.	c #86C11E",
"6.	c #7AB21F",
"7.	c #8BCA24",
"8.	c #90D11B",
"9.	c #FDAE35",
"0.	c #BF4830",
"a.	c #8AC823",
"b.	c #75A919",
"c.	c #7DBA15",
"d.	c #8ED01B",
"e.	c #81BE19",
"f.	c #6A9F0F",
"g.	c #81BC17",
"h.	c #7DB915",
"i.	c #72A817",
"j.	c #94D521",
"k.	c #8AC723",
"l.	c #74AA19",
"m.	c #8BCA22",
"n.	c #7EB916",
"o.	c #93D02B",
"p.	c #8DCA24",
"q.	c #79AF1C",
"r.	c #72A917",
"s.	c #85C31E",
"t.	c #93D32B",
"u.	c #7CB320",
"v.	c #73A816",
"w.	c #8AC721",
"x.	c #88C31F",
"y.	c #8CC923",
"z.	c #93D51F",
"A.	c #8ECB24",
"B.	c #76AC1B",
"C.	c #74A817",
"D.	c #78AF1C",
"E.	c #7BB21E",
"F.	c #7DB11D",
"G.	c #77AE1C",
"H.	c #76AB1A",
"I.	c #78AD1B",
"J.	c #8DCB26",
"K.	c #99DC28",
"L.	c #89C520",
"M.	c #98DC26",
"N.	c #8AC724",
"O.	c #7CB11F",
"P.	c #88C620",
"Q.	c #82BF1C",
"R.	c #7AAF1D",
"S.	c #80B422",
"T.	c #FFD943",
"U.	c #77AD1B",
"V.	c #7FB916",
"W.	c #90CF28",
"X.	c #7EB322",
"Y.	c #97DA24",
"Z.	c #93D621",
"`.	c #8DCF1A",
" +	c #7DB31F",
".+	c #75AC1A",
"++	c #6BA00E",
"@+	c #7CB11E",
"#+	c #94D721",
"$+	c #8BC924",
"%+	c #7BB814",
"&+	c #7EB622",
"*+	c #7AAE1D",
"=+	c #7FBF18",
"-+	c #8DCA26",
";+	c #6FA514",
">+	c #94D620",
",+	c #92D720",
"'+	c #82C01A",
")+	c #92D61F",
"!+	c #9CE027",
"~+	c #92D51E",
"{+	c #7CB21F",
"]+	c #86C31E",
"^+	c #8AC822",
"/+	c #89C622",
"(+	c #88C61F",
"_+	c #9ADC25",
":+	c #9CDF27",
"<+	c #80B824",
"[+	c #6FA513",
"}+	c #74AB19",
"|+	c #73A716",
"1+	c #84BF1C",
"2+	c #6CA110",
"3+	c #86C21E",
"4+	c #7DB522",
"5+	c #8DC924",
"6+	c #89C821",
"7+	c #7EB915",
"8+	c #85C21F",
"9+	c #699F0F",
"0+	c #8ECA26",
"a+	c #8AC722",
"b+	c #8DD01C",
"c+	c #70A513",
"d+	c #8DCA25",
"e+	c #73A815",
"f+	c #9BDD26",
"g+	c #9ADE26",
"h+	c #9EE32C",
"i+	c #9BDF28",
"j+	c #95D721",
"k+	c #71A817",
"l+	c #75AB19",
"m+	c #89C71F",
"n+	c #83C01C",
"o+	c #8DD11B",
"p+	c #9EE02A",
"q+	c #9BDD27",
"r+	c #7EB917",
"s+	c #89C823",
"t+	c #7EB521",
"u+	c #74A818",
"v+	c #80BE18",
"w+	c #80BB18",
"x+	c #8FD21E",
"y+	c #81BD1A",
"z+	c #78AE1C",
"A+	c #8ECC26",
"B+	c #92D51F",
"C+	c #9CDE28",
"D+	c #73AA17",
"E+	c #7EBB16",
"F+	c #83C01B",
"G+	c #75AD19",
"H+	c #86BD2A",
"I+	c #96D922",
"J+	c #73AA18",
"K+	c #93D12C",
"L+	c #93CF29",
"M+	c #7CBB14",
"N+	c #84BC28",
"O+	c #91CD28",
"P+	c #9CE02A",
"Q+	c #92D41F",
"R+	c #94D822",
"S+	c #70A614",
"T+	c #86C41F",
"U+	c #71A714",
"V+	c #82BA27",
"W+	c #7AB320",
"X+	c #A1E62E",
"Y+	c #91CE29",
"Z+	c #80BF1A",
"`+	c #80BD18",
" @	c #7BB714",
".@	c #87C21E",
"+@	c #74A716",
"@@	c #7AB220",
"#@	c #9ADE28",
"$@	c #87C21D",
"%@	c #6FA614",
"&@	c #87C420",
"*@	c #91D720",
"=@	c #8FD11C",
"-@	c #8DD01B",
";@	c #85C21C",
">@	c #71A514",
",@	c #87C520",
"'@	c #81B825",
")@	c #6FA515",
"!@	c #96D924",
"~@	c #97DA25",
"{@	c #95D61F",
"]@	c #7EBB15",
"^@	c #7AB01D",
"/@	c #81B522",
"(@	c #80BD19",
"_@	c #6DA311",
":@	c #90D41E",
"<@	c #84C11C",
"[@	c #82BE1A",
"}@	c #85C11C",
"|@	c #9ADF27",
"1@	c #72A714",
"2@	c #8BC823",
"3@	c #71A815",
"4@	c #74AA1A",
"5@	c #75AA19",
"6@	c #7FBE19",
"7@	c #95D521",
"8@	c #9CE22A",
"9@	c #7FBA17",
"0@	c #83C11C",
"a@	c #82BF18",
"b@	c #8FCD27",
"c@	c #89CB15",
"d@	c #83C01A",
"e@	c #A1E52D",
"f@	c #85C21D",
"g@	c #71A916",
"h@	c #8DCF19",
"i@	c #91D41D",
"j@	c #8ECF1B",
"k@	c #76AD1A",
"l@	c #79B01E",
"m@	c #91CD26",
"n@	c #89C721",
"o@	c #8ED31C",
"p@	c #7DB11E",
"q@	c #86C41E",
"r@	c #76AA19",
"s@	c #6BA110",
"t@	c #92D620",
"u@	c #8BCD18",
"v@	c #77AB1A",
"w@	c #78AD1A",
"x@	c #8CC723",
"y@	c #7EBC17",
"z@	c #80BE1A",
"A@	c #7FBD17",
"B@	c #6FA512",
"C@	c #6BA111",
"D@	c #8FD21B",
"E@	c #9CDF28",
"F@	c #78AE1D",
"G@	c #6FA314",
"H@	c #7DB321",
"I@	c #90D31B",
"J@	c #7AB611",
"K@	c #71A613",
"L@	c #8FD21D",
"M@	c #99DC25",
"N@	c #9FE12A",
"O@	c #87C41E",
"P@	c #73AA1A",
"Q@	c #9BD430",
"R@	c #679B0C",
"S@	c #6FA615",
"T@	c #81B624",
"U@	c #7FBD18",
"V@	c #8CCA24",
"W@	c #8FD11B",
"X@	c #86C01D",
"Y@	c #84C11B",
"Z@	c #9CDF2A",
"`@	c #9EE12A",
" #	c #89C422",
".#	c #98D630",
"+#	c #73A817",
"@#	c #7DB420",
"##	c #91CE28",
"$#	c #98DB25",
"%#	c #72A916",
"&#	c #88C421",
"*#	c #98DD25",
"=#	c #7FB523",
"-#	c #6FA313",
";#	c #96D822",
">#	c #90D41F",
",#	c #7EB523",
"'#	c #7CB915",
")#	c #8BC721",
"!#	c #7EB814",
"~#	c #8ACE16",
"{#	c #89C621",
"]#	c #7FBC18",
"^#	c #77AD1C",
"/#	c #93D620",
"(#	c #8CCF19",
"_#	c #80BC16",
":#	c #7AB01F",
"<#	c #75AC17",
"[#	c #77AF1C",
"}#	c #70A714",
"|#	c #85C31C",
"1#	c #9DDD29",
"2#	c #82C21D",
"3#	c #7FBB15",
"4#	c #7CB916",
"5#	c #78AD1C",
"6#	c #73A918",
"7#	c #8BC722",
"8#	c #9ADD27",
"9#	c #94D821",
"0#	c #7DBA16",
"a#	c #84C21D",
"b#	c #74A918",
"c#	c #75AB18",
"d#	c #85C31D",
"e#	c #95D821",
"f#	c #97DA21",
"g#	c #84C11D",
"h#	c #75AB1B",
"i#	c #85BB29",
"j#	c #77AC1B",
"k#	c #8DCF1B",
"l#	c #9CE02B",
"m#	c #9EE22C",
"n#	c #96D823",
"o#	c #82C11D",
"p#	c #90CE27",
"q#	c #92D41E",
"  . + @ # $ % & * = - ; > * , ' ) ! ~ { ] ^ / ( _ : < [ } | 1 2 ",
"3 4 5 6 7 8 9 0 a b c d e f g h i j k l m n o p q r s t u v w x ",
"y i z A B C D E F G H I J K L a M N O P Q R S T U V V W X Y Z ` ",
" ...+.@.d #.$.%.&.*.=.-.;.Y >.,.'.t ).!.~.{.].^./.(.J W _.Y :.<.",
"Z [.g }.|.1.2.3.4.5.6.7.8.9.9.9.9.9.9.9.0.0.a.b., _.c.d.e.f.q g.",
"h.i.j.k.l.=.m.n.o.p.q.9.9.0.9.9.9.9.9.9.9.9.0.0.. r.).s.t.u.v.w.",
"x.y.z.A.B.~.C.D.E._ 9.0.9.9.9.9.9.9.9.9.9.9.9.0.0.F.G.H.( I.J.K.",
"p L.M.N.O.P.Q.R.S.9.0.9.9.9.9.9.9.9.9.9.9.T.T.9.0.0.U.V.W.X.E Y.",
"Z.`.]  +.+++@+c 9.0.9.9.9.9.9.9.9.9.9.9.T.T.T.T.9.0.0.O #.#+$+%+",
"&+*+3 H.# =+-+x 9.0.9.9.9.9.9.0.9.9.0.T.T.T.T.9.9.0.0.;+$+>+,+x ",
"c '+}.@.P.)+!+~+9.0.9.9.9.9.9.0.9.9.0.T.T.T.9.9.9.0.0.- {+Z ]+*.",
"^+/+< (+_+:+<+9.0.9.9.9.9.9.0.0.0.0.0.0.T.9.9.9.9.9.0.0.1 [+9 r.",
"}+|+q.1+2+3+P.9.0.9.9.9.9.0.0.9.T.T.T.0.0.9.9.9.9.9.0.0.Y 4+5+o.",
"t 6+;+U.7+8+q.9.0.9.9.9.9.0.0.T.T.T.T.0.0.9.9.9.9.9.0.0.#+: 9+0+",
"a+b+c+/.d+e+C.9.0.9.9.9.9.0.0.T.T.T.9.9.9.9.9.9.9.9.0.0.f+g+C.h+",
"i+j+x.k+i.l+m+9.0.9.9.9.9.0.0.0.T.9.9.9.9.9.9.9.9.9.0.0.n+o+. p+",
"q+r+s+t+u+v+{ 9.0.9.9.9.T.T.T.0.0.0.0.9.9.9.9.9.9.9.0.0.+ w+H x+",
"$+y+z+) A+B+C+9.0.9.9.T.T.T.T.9.9.9.0.0.9.9.9.9.9.9.0.0.u+D+E+F+",
"G.:.G+H+J I+{.9.0.9.T.T.T.T.9.9.9.9.9.0.0.9.9.9.9.9.0.0.d+Z J+K+",
"=.L+3 D M+N+O+9.0.9.T.T.T.0.0.9.9.9.9.0.0.9.9.9.9.9.0.0.P+Q+R+S+",
"T+U+[+l+@ V+W+9.0.9.T.T.9.0.0.9.9.9.9.0.0.9.9.9.9.9.0.0.X+5+Y+l.",
"[+Z+D `+ @.@+@@@9.0.9.9.9.9.0.0.0.0.0.0.9.9.9.9.9.0.0.#@n+$@c %@",
"&@*@=@-@_+;@H.>@9.0.9.9.9.9.9.0.9.9.0.9.9.9.9.9.9.0.0.,@Y '@Z )@",
"!@`+* 5+~@{@[ ]@9.0.9.9.9.9.9.0.9.9.0.9.9.9.9.9.9.0.0.^@/@(@_@:@",
"<@, [@2.}@, q |@| 9.0.9.9.9.9.9.9.9.9.9.9.9.9.9.0.0.1@(@v 2@3@)+",
", 4@5@(.6@y 7@8@9@_ 9.0.9.9.9.9.9.9.9.9.9.9.9.0.0.0@[.H a@x H b@",
". %@c@Z d@y e@f@+ g@h@9.9.0.9.9.9.9.9.9.9.9.0.0.i@j@^@@@k@l@m@) ",
"J+n@o@p@f@5+q@r@s@t@u@D.v.9.9.9.9.9.9.9.0.0.v@w@x@* D.y@z@A@B@C@",
"S D@E@F@O.@ 2+G@H@I@J@K@B.R+L@k@M@N@O@P@Q@R@S@T@H.c U@V@W@X@] Y@",
"Z@`@ #G .#+#@###$#~ :.%#&#*#q =#-#;#>#M.2@U@,#'#q.++)#!#~+~#{#]#",
"e@a.^#F@< %.b@/#(#_#] :#u+<#[#}#: $+|#1#2#3#4#5#6#P.S+H 7#8#9#J ",
"0#a#b#q.c#d#e#f#g#T h#i#k@6#5.G.{.j#Y k#l#m#n#h#@ {#_@o#p#e#Z.q#"};
