/* XPM */
static char * C:\Users\Leonardo\Downloads\assets\map\exit_xpm[] = {
"32 32 370 2",
"  	c #8AC924",
". 	c #76AD1B",
"+ 	c #80B724",
"@ 	c #76AA1A",
"# 	c #7DB421",
"$ 	c #82B824",
"% 	c #8CC824",
"& 	c #8ED11B",
"* 	c #88C521",
"= 	c #76AA17",
"- 	c #7AB11F",
"; 	c #72A615",
"> 	c #7DBC17",
", 	c #79AF1D",
"' 	c #7CB120",
") 	c #7DB320",
"! 	c #86C320",
"~ 	c #9ADC27",
"{ 	c #93D720",
"] 	c #87C31F",
"^ 	c #83BF1A",
"/ 	c #99DB26",
"( 	c #74AA17",
"_ 	c #7EB422",
": 	c #88C41F",
"< 	c #76AC1A",
"[ 	c #78AE1B",
"} 	c #99DE28",
"| 	c #91D31E",
"1 	c #87C41F",
"2 	c #87CB16",
"3 	c #6DA211",
"4 	c #76AB18",
"5 	c #87C31E",
"6 	c #78B612",
"7 	c #8CCB24",
"8 	c #77AD19",
"9 	c #70A715",
"0 	c #6FA713",
"a 	c #7CB220",
"b 	c #77AE1B",
"c 	c #79AE1D",
"d 	c #8CC822",
"e 	c #7FBB17",
"f 	c #90D21E",
"g 	c #8CC823",
"h 	c #80B623",
"i 	c #7FBC17",
"j 	c #93D61F",
"k 	c #97D924",
"l 	c #8DC925",
"m 	c #8AC02E",
"n 	c #7BB01F",
"o 	c #7DB815",
"p 	c #96DA22",
"q 	c #6EA413",
"r 	c #7EBA16",
"s 	c #6CA111",
"t 	c #8CCA25",
"u 	c #9DE129",
"v 	c #8AC621",
"w 	c #88C621",
"x 	c #88C520",
"y 	c #79B01D",
"z 	c #89C521",
"A 	c #9EE22A",
"B 	c #8CCF1A",
"C 	c #8ED01A",
"D 	c #89C620",
"E 	c #8DCB25",
"F 	c #ECF0F1",
"G 	c #88C420",
"H 	c #91D41E",
"I 	c #8FD31C",
"J 	c #8BC822",
"K 	c #77AC1A",
"L 	c #7BB914",
"M 	c #7BB221",
"N 	c #7CB221",
"O 	c #6EA512",
"P 	c #6DA312",
"Q 	c #9ADE27",
"R 	c #91D620",
"S 	c #C0CCDC",
"T 	c #98DB24",
"U 	c #87C51F",
"V 	c #7BB01E",
"W 	c #7FB422",
"X 	c #84BA27",
"Y 	c #70A514",
"Z 	c #70A615",
"` 	c #6FA312",
" .	c #84C01C",
"..	c #7DBA15",
"+.	c #8ED01B",
"@.	c #81BE19",
"#.	c #6A9F0F",
"$.	c #81BC17",
"%.	c #7DB915",
"&.	c #72A817",
"*.	c #94D521",
"=.	c #8AC723",
"-.	c #74AA19",
";.	c #7AB01E",
">.	c #8BCA22",
",.	c #73A917",
"'.	c #85C31E",
").	c #93D32B",
"!.	c #7CB320",
"~.	c #73A816",
"{.	c #8AC721",
"].	c #88C31F",
"^.	c #8CC923",
"/.	c #93D51F",
"(.	c #8ECB24",
"_.	c #76AC1B",
":.	c #72A716",
"<.	c #74A817",
"[.	c #77AE1C",
"}.	c #76AB1A",
"|.	c #78AD1B",
"1.	c #8DCB26",
"2.	c #99DC28",
"3.	c #89C520",
"4.	c #98DC26",
"5.	c #8AC724",
"6.	c #7CB11F",
"7.	c #88C620",
"8.	c #82BF1C",
"9.	c #252B43",
"0.	c #77AD1B",
"a.	c #7FB916",
"b.	c #90CF28",
"c.	c #7EB322",
"d.	c #97DA24",
"e.	c #93D621",
"f.	c #8DCF1A",
"g.	c #7DB31F",
"h.	c #75AC1A",
"i.	c #6BA00E",
"j.	c #7CB11E",
"k.	c #73A916",
"l.	c #8AC923",
"m.	c #94D721",
"n.	c #8BC924",
"o.	c #7BB814",
"p.	c #7EB622",
"q.	c #7AAE1D",
"r.	c #7FBF18",
"s.	c #8DCA26",
"t.	c #7EB321",
"u.	c #6FA514",
"v.	c #94D620",
"w.	c #92D720",
"x.	c #82C01A",
"y.	c #92D61F",
"z.	c #9CE027",
"A.	c #86C31E",
"B.	c #7CB21F",
"C.	c #74AA18",
"D.	c #8AC822",
"E.	c #89C622",
"F.	c #88C61F",
"G.	c #9ADC25",
"H.	c #9CDF27",
"I.	c #80B824",
"J.	c #6FA513",
"K.	c #72A917",
"L.	c #74AB19",
"M.	c #73A716",
"N.	c #79AF1C",
"O.	c #84BF1C",
"P.	c #6CA110",
"Q.	c #86C21E",
"R.	c #8B9BB5",
"S.	c #96D823",
"T.	c #9ADD27",
"U.	c #7DB522",
"V.	c #8DC924",
"W.	c #93D02B",
"X.	c #89C821",
"Y.	c #7EB915",
"Z.	c #85C21F",
"`.	c #8FCB26",
" +	c #86C813",
".+	c #699F0F",
"++	c #8ECA26",
"@+	c #8AC722",
"#+	c #8DD01C",
"$+	c #70A513",
"%+	c #72A818",
"&+	c #8DCA25",
"*+	c #73A815",
"=+	c #9BDD26",
"-+	c #9ADE26",
";+	c #9EE32C",
">+	c #9BDF28",
",+	c #95D721",
"'+	c #71A817",
")+	c #75AB19",
"!+	c #89C71F",
"~+	c #78B01C",
"{+	c #71A613",
"]+	c #83C01C",
"^+	c #8DD11B",
"/+	c #9EE02A",
"(+	c #9BDD27",
"_+	c #7EB917",
":+	c #89C823",
"<+	c #7EB521",
"[+	c #74A818",
"}+	c #80BE18",
"|+	c #90CD26",
"1+	c #80BB18",
"2+	c #86C31D",
"3+	c #8FD21E",
"4+	c #81BD1A",
"5+	c #78AE1C",
"6+	c #8ECC26",
"7+	c #92D51F",
"8+	c #9CDE28",
"9+	c #7DB422",
"0+	c #6FA415",
"a+	c #73AA17",
"b+	c #7EBB16",
"c+	c #83C01B",
"d+	c #75AD19",
"e+	c #86BD2A",
"f+	c #96D922",
"g+	c #74AB18",
"h+	c #6AA110",
"i+	c #8CCA24",
"j+	c #73AA18",
"k+	c #93D12C",
"l+	c #93CF29",
"m+	c #7CBB14",
"n+	c #84BC28",
"o+	c #91CD28",
"p+	c #93CF2A",
"q+	c #9CE12A",
"r+	c #9CE02A",
"s+	c #92D41F",
"t+	c #94D822",
"u+	c #70A614",
"v+	c #86C41F",
"w+	c #71A714",
"x+	c #82BA27",
"y+	c #7AB320",
"z+	c #90D31E",
"A+	c #A1E62E",
"B+	c #91CE29",
"C+	c #80BF1A",
"D+	c #80BD18",
"E+	c #7BB714",
"F+	c #87C21E",
"G+	c #74A716",
"H+	c #8BCE19",
"I+	c #9ADE28",
"J+	c #87C21D",
"K+	c #6FA614",
"L+	c #87C420",
"M+	c #91D720",
"N+	c #8FD11C",
"O+	c #8DD01B",
"P+	c #85C21C",
"Q+	c #84C31E",
"R+	c #87C520",
"S+	c #81B825",
"T+	c #6FA515",
"U+	c #96D924",
"V+	c #97DA25",
"W+	c #95D61F",
"X+	c #79AF1E",
"Y+	c #7AB01D",
"Z+	c #81B522",
"`+	c #80BD19",
" @	c #6DA311",
".@	c #90D41E",
"+@	c #84C11C",
"@@	c #82BE1A",
"#@	c #85C11C",
"$@	c #72A714",
"%@	c #8BC823",
"&@	c #71A815",
"*@	c #74AA1A",
"=@	c #75AA19",
"-@	c #80BC17",
";@	c #7FBE19",
">@	c #95D521",
",@	c #82BF18",
"'@	c #8FCD27",
")@	c #89CB15",
"!@	c #83C01A",
"~@	c #A1E52D",
"{@	c #7AB220",
"]@	c #76AD1A",
"^@	c #79B01E",
"/@	c #91CD26",
"(@	c #89C721",
"_@	c #8ED31C",
":@	c #7DB11E",
"<@	c #85C21D",
"[@	c #86C41E",
"}@	c #78AF1C",
"|@	c #7EBC17",
"1@	c #80BE1A",
"2@	c #7FBD17",
"3@	c #6FA512",
"4@	c #6BA111",
"5@	c #73A818",
"6@	c #8FD21B",
"7@	c #9CDF28",
"8@	c #78AE1D",
"9@	c #6FA314",
"0@	c #7FBD18",
"a@	c #8FD11B",
"b@	c #86C01D",
"c@	c #84C11B",
"d@	c #9CDF2A",
"e@	c #9EE12A",
"f@	c #89C422",
"g@	c #75AA18",
"h@	c #98D630",
"i@	c #73A817",
"j@	c #7DB420",
"k@	c #91CE28",
"l@	c #8BC721",
"m@	c #7EB814",
"n@	c #92D51E",
"o@	c #8ACE16",
"p@	c #89C621",
"q@	c #7FBC18",
"r@	c #8AC823",
"s@	c #77AD1C",
"t@	c #8FCA26",
"u@	c #93D620",
"v@	c #8CCF19",
"w@	c #80BC16",
"x@	c #7AB01F",
"y@	c #75AC17",
"z@	c #77AF1C",
"A@	c #70A714",
"B@	c #85C31C",
"C@	c #9DDD29",
"D@	c #82C21D",
"E@	c #7FBB15",
"F@	c #7CB916",
"G@	c #78AD1C",
"H@	c #73A918",
"I@	c #8BC722",
"J@	c #94D821",
"K@	c #7DBA16",
"L@	c #84C21D",
"M@	c #74A918",
"N@	c #75AB18",
"O@	c #85C31D",
"P@	c #95D821",
"Q@	c #97DA21",
"R@	c #84C11D",
"S@	c #85C21E",
"T@	c #75AB1B",
"U@	c #85BB29",
"V@	c #86C11E",
"W@	c #77AC1B",
"X@	c #8DCF1B",
"Y@	c #9CE02B",
"Z@	c #9EE22C",
"`@	c #82C11D",
" #	c #90CE27",
".#	c #92D41E",
"  . + @ # $ % & * = - ; > * , ' ) ! ~ { ] ^ / ( _ : < [ } | 1 2 ",
"3 4 5 6 7 8 9 0 a b c d e f g h i j k l m n o p q r s t u v w x ",
"y i z A B C D E F F F F F F F F F F F F F F F F F G G H I J K L ",
"M N O P d Q R S S S S S S S S S S S S S S S S S S F T H U J V W ",
"K X g Y Z `  .S S S S S S S S S S S S S S S S S S F ..+.@.#.q $.",
"%.&.*.=.-.;.>.S S S S S S S S S S S S S S S S S S F ,.'.).!.~.{.",
"].^./.(._.:.<.S S S S S S S S S S S S S S S S S S F [.}.( |.1.2.",
"p 3.4.5.6.7.8.S S S 9.S S S S S S S S S S S S S S F 0.a.b.c.E d.",
"e.f.] g.h.i.j.S S S 9.S S S S S S S S S S S S S S F k.l.Q m.n.o.",
"p.q.3 }.# r.s.S S S 9.S S S S S S S S S S S S S S F t.u.n.v.w.x ",
"c x.Y P 7.y.z.S S S S S S S S S S S S S S S S S S F A.- B.K A.C.",
"D.E.< F.G.H.I.S S S S S S S S S S S S S S S S S S F A.1 1 J.9 K.",
"L.M.N.O.P.Q.7.R.R.R.R.R.R.R.R.R.R.R.R.R.R.R.R.R.R.R.S.T.J U.V.W.",
"t X.u.0.Y.Z.N.F F F F F F F F F F F F F F F F F F F `. +m.: .+++",
"@+#+$+%+&+*+<.S S S S S S S S S S S S S S S S S S F Y K =+-+<.;+",
">+,+].'+&.)+!+S S S S S S S S S S S S S S S S S S F ~+{+]+^+. /+",
"(+_+:+<+[+}+{ S S S 9.S S S S S S S S S S S S S S F |++++ 1+2+3+",
"n.4+5+) 6+7+8+S S S 9.S S S S S S S S S S S S S S F 9+0+[+a+b+c+",
"[.V d+e+T f+g+S S S 9.S S S S S S S S S S S S S S F h+i+&+K j+k+",
";.l+3 D m+n+o+S S S 9.S S S S S S S S S S S S S S F p+q+r+s+t+u+",
"v+w+J.)+@ x+y+S S S 9.S S S S S S S S S S S S S S F v+z+A+V.B+-.",
"J.C+D D+E+F+G+S S S S S S S S S S S S S S S S S S F H+I+]+J+c K+",
"L+M+N+O+G.P+}.S S S S S S S S S S S S S S S S S S F Q+R+J S+K T+",
"U+D+* V.V+W+[ S S S S S S S S S S S S S S S S S S F X+Y+Z+`+ @.@",
"+@, @@ .#@, q S S S S S S S S S S S S S S S S S S F $@`+v %@&@y.",
", *@=@-@;@y >@S S S S S S S S S S S S S S S S S S F X 2+,@x 2+'@",
". K+)@K !@y ~@S S S S S S S S S S S S S S S S S S F Y+{@]@^@/@) ",
"j+(@_@:@<@V.[@S S S S S S S S S S S S S S S S S S F }@|@1@2@3@4@",
"5@6@7@8@6.@ P.9@9.9.9.9.9.9.9.9.9.9.9.9.9.9.9.9.9.c 0@i+a@b@] c@",
"d@e@f@g@h@i@j@k@9.9.9.9.9.9.9.9.9.9.9.9.9.9.9.9.9.i.l@m@n@o@p@q@",
"~@r@s@8@< t@'@u@v@w@] x@[+y@z@A@: n.B@C@D@E@F@G@H@7.u+2+I@T.J@T ",
"K@L@M@N.N@O@P@Q@R@S@T@U@]@H@V@[.g+W@J X@Y@Z@S.T@@ p@ @`@ #P@e..#"};
