/* XPM */
static char * C:\Users\Leonardo\Downloads\assets\MegaPixelArt32x32pxIcons_SpriteSheet\open_exit_xpm[] = {
"32 32 252 2",
"  	c #8AC924",
". 	c #76AD1B",
"+ 	c #80B724",
"@ 	c #76AA1A",
"# 	c #F77622",
"$ 	c #78AE1B",
"% 	c #99DE28",
"& 	c #91D31E",
"* 	c #87C41F",
"= 	c #87CB16",
"- 	c #6DA211",
"; 	c #76AB18",
"> 	c #87C31E",
", 	c #78B612",
"' 	c #8CCA25",
") 	c #9DE129",
"! 	c #8AC621",
"~ 	c #88C621",
"{ 	c #88C520",
"] 	c #79B01D",
"^ 	c #7FBC17",
"/ 	c #89C521",
"( 	c #9EE22A",
"_ 	c #422632",
": 	c #91D41E",
"< 	c #8FD31C",
"[ 	c #8BC822",
"} 	c #77AC1A",
"| 	c #7BB914",
"1 	c #7BB221",
"2 	c #7CB221",
"3 	c #6EA512",
"4 	c #6DA312",
"5 	c #733D3B",
"6 	c #87C51F",
"7 	c #7BB01E",
"8 	c #7FB422",
"9 	c #84BA27",
"0 	c #8CC823",
"a 	c #70A514",
"b 	c #8ED01B",
"c 	c #81BE19",
"d 	c #6A9F0F",
"e 	c #6EA413",
"f 	c #81BC17",
"g 	c #7DB915",
"h 	c #72A817",
"i 	c #94D521",
"j 	c #8AC723",
"k 	c #85C31E",
"l 	c #93D32B",
"m 	c #7CB320",
"n 	c #73A816",
"o 	c #8AC721",
"p 	c #88C31F",
"q 	c #8CC923",
"r 	c #93D51F",
"s 	c #8ECB24",
"t 	c #76AB1A",
"u 	c #74AA17",
"v 	c #78AD1B",
"w 	c #8DCB26",
"x 	c #99DC28",
"y 	c #96DA22",
"z 	c #89C520",
"A 	c #98DC26",
"B 	c #8AC724",
"C 	c #7FB916",
"D 	c #90CF28",
"E 	c #7EB322",
"F 	c #8DCB25",
"G 	c #97DA24",
"H 	c #93D621",
"I 	c #8DCF1A",
"J 	c #87C31F",
"K 	c #7DB31F",
"L 	c #8AC923",
"M 	c #9ADE27",
"N 	c #94D721",
"O 	c #8BC924",
"P 	c #7BB814",
"Q 	c #7EB622",
"R 	c #7AAE1D",
"S 	c #FEE861",
"T 	c #6FA514",
"U 	c #94D620",
"V 	c #92D720",
"W 	c #79AE1D",
"X 	c #82C01A",
"Y 	c #BF4830",
"Z 	c #FDAE35",
"` 	c #7AB11F",
" .	c #7CB21F",
"..	c #86C31E",
"+.	c #74AA18",
"@.	c #8AC822",
"#.	c #89C622",
"$.	c #76AC1A",
"%.	c #88C61F",
"&.	c #9ADC25",
"*.	c #9CDF27",
"=.	c #6FA513",
"-.	c #70A715",
";.	c #72A917",
">.	c #74AB19",
",.	c #73A716",
"'.	c #79AF1C",
").	c #84BF1C",
"!.	c #9ADD27",
"~.	c #7DB522",
"{.	c #8DC924",
"].	c #93D02B",
"^.	c #89C821",
"/.	c #77AD1B",
"(.	c #86C813",
"_.	c #88C41F",
":.	c #699F0F",
"<.	c #8ECA26",
"[.	c #8AC722",
"}.	c #8DD01C",
"|.	c #70A513",
"1.	c #72A818",
"2.	c #9BDD26",
"3.	c #9ADE26",
"4.	c #74A817",
"5.	c #9EE32C",
"6.	c #9BDF28",
"7.	c #95D721",
"8.	c #71A817",
"9.	c #71A613",
"0.	c #83C01C",
"a.	c #8DD11B",
"b.	c #9EE02A",
"c.	c #9BDD27",
"d.	c #7EB917",
"e.	c #89C823",
"f.	c #7EB521",
"g.	c #80BB18",
"h.	c #86C31D",
"i.	c #8FD21E",
"j.	c #81BD1A",
"k.	c #78AE1C",
"l.	c #7DB320",
"m.	c #6FA415",
"n.	c #74A818",
"o.	c #73AA17",
"p.	c #7EBB16",
"q.	c #83C01B",
"r.	c #77AE1C",
"s.	c #75AD19",
"t.	c #86BD2A",
"u.	c #8CCA24",
"v.	c #8DCA25",
"w.	c #73AA18",
"x.	c #93D12C",
"y.	c #7AB01E",
"z.	c #93CF29",
"A.	c #89C620",
"B.	c #9CE12A",
"C.	c #9CE02A",
"D.	c #92D41F",
"E.	c #94D822",
"F.	c #70A614",
"G.	c #86C41F",
"H.	c #71A714",
"I.	c #75AB19",
"J.	c #90D31E",
"K.	c #A1E62E",
"L.	c #91CE29",
"M.	c #74AA19",
"N.	c #80BF1A",
"O.	c #80BD18",
"P.	c #9ADE28",
"Q.	c #87C21D",
"R.	c #6FA614",
"S.	c #87C420",
"T.	c #91D720",
"U.	c #8FD11C",
"V.	c #8DD01B",
"W.	c #D77643",
"X.	c #84C31E",
"Y.	c #87C520",
"Z.	c #81B825",
"`.	c #6FA515",
" +	c #96D924",
".+	c #88C521",
"++	c #7AB01D",
"@+	c #81B522",
"#+	c #80BD19",
"$+	c #6DA311",
"%+	c #90D41E",
"&+	c #84C11C",
"*+	c #79AF1D",
"=+	c #82BE1A",
"-+	c #84C01C",
";+	c #8BC823",
">+	c #71A815",
",+	c #92D61F",
"'+	c #74AA1A",
")+	c #75AA19",
"!+	c #80BC17",
"~+	c #82BF18",
"{+	c #8FCD27",
"]+	c #89CB15",
"^+	c #83C01A",
"/+	c #7AB220",
"(+	c #76AD1A",
"_+	c #79B01E",
":+	c #91CD26",
"<+	c #89C721",
"[+	c #8ED31C",
"}+	c #7DB11E",
"|+	c #85C21D",
"1+	c #78AF1C",
"2+	c #7EBC17",
"3+	c #80BE1A",
"4+	c #7FBD17",
"5+	c #6FA512",
"6+	c #6BA111",
"7+	c #73A818",
"8+	c #8FD21B",
"9+	c #9CDF28",
"0+	c #78AE1D",
"a+	c #7CB11F",
"b+	c #7FBD18",
"c+	c #8FD11B",
"d+	c #86C01D",
"e+	c #84C11B",
"f+	c #9CDF2A",
"g+	c #9EE12A",
"h+	c #89C422",
"i+	c #75AA18",
"j+	c #98D630",
"k+	c #8BC721",
"l+	c #7EB814",
"m+	c #92D51E",
"n+	c #8ACE16",
"o+	c #89C621",
"p+	c #7FBC18",
"q+	c #A1E52D",
"r+	c #8AC823",
"s+	c #77AD1C",
"t+	c #8BC722",
"u+	c #94D821",
"v+	c #98DB24",
"w+	c #7DBA16",
"x+	c #84C21D",
"y+	c #74A918",
"z+	c #82C11D",
"A+	c #90CE27",
"B+	c #95D821",
"C+	c #92D41E",
"  . + @ # # # # # # # # # # # # # # # # # # # # # # # $ % & * = ",
"- ; > , # # # # # # # # # # # # # # # # # # # # # # # ' ) ! ~ { ",
"] ^ / ( # # _ _ _ _ _ _ _ _ _ _ _ _ _ _ _ _ _ _ _ # # : < [ } | ",
"1 2 3 4 # # _ 5 5 _ _ _ 5 5 5 _ _ 5 _ _ _ 5 5 _ _ # # : 6 [ 7 8 ",
"} 9 0 a # # 5 5 5 5 5 5 5 5 5 5 5 5 5 5 5 5 5 5 5 # # b c d e f ",
"g h i j # # 5 5 5 5 5 5 5 5 5 5 5 5 5 5 5 5 5 5 5 # # k l m n o ",
"p q r s # # _ _ 5 5 5 _ _ 5 _ _ _ _ _ _ 5 5 5 _ _ # # t u v w x ",
"y z A B # # 5 5 5 5 5 5 5 5 5 5 5 5 5 5 5 5 5 5 5 # # C D E F G ",
"H I J K # # 5 5 _ _ _ _ 5 5 _ _ _ _ _ 5 5 _ _ 5 5 # # L M N O P ",
"Q R - t # # _ _ _ _ _ _ _ _ # S S S _ _ _ _ _ _ _ # # T O U V { ",
"W X a 4 # # _ _ Y Y Y _ _ # S Z # # S _ Y Y Y _ _ # # `  .} ..+.",
"@.#.$.%.&.*.# # Y Y Y # # # S Z Z # S # Y Y Y # # ( ..* * =.-.;.",
">.,.'.).Z Z Z Z Z Z Z Z Z # S Z Z # S Z Z Z Z Z Z Z Z !.[ ~.{.].",
"' ^.T /.Z Z Y Y Y Y Y Y Y # S Z Z # S Y Y Y Y Y Y Z Z (.N _.:.<.",
"[.}.|.1.Z Z Y Y Y Y Y Y Y Y # S S S Y Y Y Y Y Y Y Z Z } 2.3.4.5.",
"6.7.p 8.Z Z Y Y Y Y Y Y Y Y Y Y Y Y Y Y Y Y Y Y Y Z Z 9.0.a.. b.",
"c.d.e.f.Z Z Y Y Y Y Y Y Y Y Y Y Y Y Y Y Y Y Y Y Y Z Z <.+ g.h.i.",
"O j.k.l.Z Z Y Y Y Y Y Y Y Y Y Y Y Y Y Y Y Y Y Y Y Z Z m.n.o.p.q.",
"r.7 s.t.Z S Y Y Y Y Y Y Y Y Y Y Y Y Y Y Y Y Y Y Y Z S u.v.} w.x.",
"y.z.- A.Z S Y Y Y Y Y Y Y Y Y Y Y Y Y Y Y Y Y Y Y Z S B.C.D.E.F.",
"G.H.=.I.Z S S S Z Z Z Z Z Z Z Z Z Z Z Z Z Z Z Z S S S J.K.{.L.M.",
"=.N.A.O.# # # # # # # # # # # # # # # # # # # # # # # P.0.Q.W R.",
"S.T.U.V.&.W.W._ _ _ _ _ _ _ _ _ _ _ _ _ _ _ _ _ W.W.X.Y.[ Z.} `.",
" +O..+{.# Z Z _ 5 5 5 _ 5 5 5 5 5 5 5 _ 5 5 5 _ Z Z # ++@+#+$+%+",
"&+*+=+-+# Z Z _ 5 5 5 _ 5 5 5 S 5 5 5 _ 5 5 5 _ Z Z # #+! ;+>+,+",
"*+'+)+!+# Z Z 5 5 5 5 _ 5 5 5 # 5 5 5 5 5 5 5 _ Z Z # h.~+{ h.{+",
". R.]+} ^+Z Z 5 5 5 5 _ 5 5 5 # 5 5 5 _ 5 5 5 5 Z Z ++/+(+_+:+l.",
"w.<+[+}+|+Z Z _ 5 5 5 5 5 5 5 _ 5 5 5 _ 5 5 5 5 Z Z 1+2+3+4+5+6+",
"7+8+9+0+a+Z Z _ 5 5 5 _ 5 5 5 _ 5 5 5 _ 5 5 5 _ Z Z b+u.c+d+J e+",
"f+g+h+i+j+Z Z _ 5 5 5 _ 5 5 _ _ 5 5 5 _ 5 5 5 _ Z Z k+l+m+n+o+p+",
"q+r+s+0+S Z Z Z Z Z Z Z Z Z Z Z Z Z Z Z Z Z Z Z Z Z S h.t+!.u+v+",
"w+x+y+'.S S S S S Z Z S S Z Z Z Z Z Z S Z S S Z S S S z+A+B+H C+"};
