/* XPM */
static char * C:\Users\pc\Desktop\wall_xpm[] = {
"32 32 629 2",
"  	c #C36850",
". 	c #C0624D",
"+ 	c #B95B45",
"@ 	c #CC7058",
"# 	c #BF624D",
"$ 	c #C3674F",
"% 	c #B65942",
"& 	c #A6A894",
"* 	c #B85A44",
"= 	c #B55643",
"- 	c #C3664F",
"; 	c #BE5F48",
"> 	c #BF624C",
", 	c #BD6049",
"' 	c #C66850",
") 	c #BE624A",
"! 	c #C76B52",
"~ 	c #B85B45",
"{ 	c #C1654E",
"] 	c #CB6D56",
"^ 	c #C0624C",
"/ 	c #CC6F57",
"( 	c #9FA08B",
"_ 	c #C56951",
": 	c #C56751",
"< 	c #BC5F48",
"[ 	c #BA5F46",
"} 	c #C2654E",
"| 	c #C1664F",
"1 	c #C96B54",
"2 	c #B65841",
"3 	c #944F3B",
"4 	c #8F4835",
"5 	c #9E5743",
"6 	c #974D3C",
"7 	c #9B5240",
"8 	c #A05846",
"9 	c #854536",
"0 	c #A0A18D",
"a 	c #BE624B",
"b 	c #964F3D",
"c 	c #8D4433",
"d 	c #964D3B",
"e 	c #944D3B",
"f 	c #8F4635",
"g 	c #8D4735",
"h 	c #924839",
"i 	c #9F5844",
"j 	c #8C4535",
"k 	c #974F3A",
"l 	c #9C5744",
"m 	c #954D3B",
"n 	c #7B3C2D",
"o 	c #B0B19C",
"p 	c #BF644C",
"q 	c #995340",
"r 	c #974F3F",
"s 	c #964E3C",
"t 	c #8C4332",
"u 	c #97503D",
"v 	c #863D2B",
"w 	c #9D5744",
"x 	c #944B3A",
"y 	c #904836",
"z 	c #9A5240",
"A 	c #9D5643",
"B 	c #954D3A",
"C 	c #804132",
"D 	c #ABAB98",
"E 	c #B35540",
"F 	c #99513E",
"G 	c #8E4635",
"H 	c #8E4634",
"I 	c #8D4634",
"J 	c #954B3A",
"K 	c #934A38",
"L 	c #974E3C",
"M 	c #954E3B",
"N 	c #964D3C",
"O 	c #97503C",
"P 	c #7E3F30",
"Q 	c #9E9F8B",
"R 	c #914836",
"S 	c #8A4331",
"T 	c #995341",
"U 	c #964E3B",
"V 	c #8B4331",
"W 	c #9B5341",
"X 	c #98513F",
"Y 	c #8C4532",
"Z 	c #934C3B",
"` 	c #8E4534",
" .	c #8D4533",
"..	c #9E5541",
"+.	c #824334",
"@.	c #A1A38F",
"#.	c #CA6D56",
"$.	c #9F5745",
"%.	c #974F3C",
"&.	c #A05946",
"*.	c #944A38",
"=.	c #99523F",
"-.	c #914A39",
";.	c #914937",
">.	c #A55E4C",
",.	c #904837",
"'.	c #995240",
").	c #9B5441",
"!.	c #814334",
"~.	c #A2A490",
"{.	c #CB6F57",
"].	c #904A38",
"^.	c #904736",
"/.	c #944C39",
"(.	c #97513F",
"_.	c #964D3D",
":.	c #984F3E",
"<.	c #924A38",
"[.	c #99503D",
"}.	c #994E3D",
"|.	c #9B5340",
"1.	c #9E5745",
"2.	c #7F4132",
"3.	c #9F9F8B",
"4.	c #BF624B",
"5.	c #8F4836",
"6.	c #984F3C",
"7.	c #944B3B",
"8.	c #A45C4A",
"9.	c #9C5441",
"0.	c #89402F",
"a.	c #8F4735",
"b.	c #914938",
"c.	c #8C4E3E",
"d.	c #AAAA97",
"e.	c #C2634C",
"f.	c #995140",
"g.	c #974F3E",
"h.	c #9C5341",
"i.	c #9D5442",
"j.	c #9C5442",
"k.	c #9D5341",
"l.	c #924A3A",
"m.	c #8E4734",
"n.	c #824234",
"o.	c #B0B29E",
"p.	c #B65943",
"q.	c #954D3C",
"r.	c #883E2D",
"s.	c #9F5744",
"t.	c #8B4231",
"u.	c #863D2D",
"v.	c #9A5340",
"w.	c #9D5443",
"x.	c #944C3A",
"y.	c #9A523F",
"z.	c #8E503F",
"A.	c #A5A390",
"B.	c #C2664E",
"C.	c #934B38",
"D.	c #974F3B",
"E.	c #9D5542",
"F.	c #7C3E30",
"G.	c #834534",
"H.	c #763628",
"I.	c #8E4E3F",
"J.	c #854838",
"K.	c #834535",
"L.	c #A9AB98",
"M.	c #C2654C",
"N.	c #844435",
"O.	c #925343",
"P.	c #7E3E30",
"Q.	c #7E4030",
"R.	c #804031",
"S.	c #854435",
"T.	c #824333",
"U.	c #894A3B",
"V.	c #854636",
"W.	c #7E3E2E",
"X.	c #814435",
"Y.	c #959582",
"Z.	c #C46850",
"`.	c #804233",
" +	c #854737",
".+	c #804032",
"++	c #894B3B",
"@+	c #7E3F31",
"#+	c #78382B",
"$+	c #894A3A",
"%+	c #A1A28C",
"&+	c #A8A894",
"*+	c #A1A48F",
"=+	c #979884",
"-+	c #A4A591",
";+	c #9FA18D",
">+	c #A9AA96",
",+	c #A5A894",
"'+	c #A6A793",
")+	c #A2A38F",
"!+	c #A6A895",
"~+	c #9F9E8A",
"{+	c #A4A693",
"]+	c #A5A693",
"^+	c #A4A390",
"/+	c #A5A893",
"(+	c #A3A590",
"_+	c #989986",
":+	c #9E9D8A",
"<+	c #ACAD99",
"[+	c #9F9F8C",
"}+	c #9C9D8A",
"|+	c #A7A893",
"1+	c #A2A390",
"2+	c #A0A28F",
"3+	c #A7A794",
"4+	c #A5A692",
"5+	c #A9A894",
"6+	c #C2654F",
"7+	c #BE604A",
"8+	c #C0634B",
"9+	c #C4684F",
"0+	c #BC6149",
"a+	c #BA5D46",
"b+	c #C56850",
"c+	c #B95C46",
"d+	c #C2654D",
"e+	c #C0664D",
"f+	c #CD7159",
"g+	c #B3553F",
"h+	c #A9AA95",
"i+	c #C4654F",
"j+	c #C3644E",
"k+	c #BE614C",
"l+	c #BA5C45",
"m+	c #C1644E",
"n+	c #C1644D",
"o+	c #C0634E",
"p+	c #C1634D",
"q+	c #BB5D46",
"r+	c #C46750",
"s+	c #C0644C",
"t+	c #A1A18D",
"u+	c #C5664F",
"v+	c #984F3F",
"w+	c #9B5241",
"x+	c #873F2D",
"y+	c #95503D",
"z+	c #9A513F",
"A+	c #9D5642",
"B+	c #904A37",
"C+	c #733426",
"D+	c #A2A493",
"E+	c #CA6C55",
"F+	c #984E3C",
"G+	c #944B39",
"H+	c #9A5341",
"I+	c #9C5642",
"J+	c #974F3D",
"K+	c #954C3B",
"L+	c #8F4637",
"M+	c #ABAB95",
"N+	c #C66A51",
"O+	c #914C39",
"P+	c #904735",
"Q+	c #924938",
"R+	c #914939",
"S+	c #9F5644",
"T+	c #8D4334",
"U+	c #A15845",
"V+	c #A4A691",
"W+	c #BA5D48",
"X+	c #944E3B",
"Y+	c #944C3C",
"Z+	c #9C5440",
"`+	c #944A39",
" @	c #964F3E",
".@	c #9D5543",
"+@	c #9E5744",
"@@	c #934C39",
"#@	c #8F4736",
"$@	c #88493A",
"%@	c #A09F8D",
"&@	c #904937",
"*@	c #934B3A",
"=@	c #924A39",
"-@	c #964E3D",
";@	c #9B5442",
">@	c #964F3C",
",@	c #A45F4B",
"'@	c #A7604C",
")@	c #7F4032",
"!@	c #A5A591",
"~@	c #8F4534",
"{@	c #954F3D",
"]@	c #914838",
"^@	c #96503C",
"/@	c #924939",
"(@	c #934C38",
"_@	c #914737",
":@	c #7A3C2D",
"<@	c #A4A491",
"[@	c #C4664F",
"}@	c #9E5543",
"|@	c #924B39",
"1@	c #894231",
"2@	c #914936",
"3@	c #944D3A",
"4@	c #98503E",
"5@	c #7A3A2C",
"6@	c #C2644E",
"7@	c #924837",
"8@	c #934938",
"9@	c #995440",
"0@	c #934937",
"a@	c #99503E",
"b@	c #914837",
"c@	c #904636",
"d@	c #834436",
"e@	c #B55741",
"f@	c #894232",
"g@	c #883E2E",
"h@	c #9D5843",
"i@	c #99503F",
"j@	c #99513F",
"k@	c #9E9E8B",
"l@	c #BB5F48",
"m@	c #9F5845",
"n@	c #985140",
"o@	c #98503D",
"p@	c #8A432F",
"q@	c #914B38",
"r@	c #8C4534",
"s@	c #7E3F2F",
"t@	c #A7A692",
"u@	c #BE614B",
"v@	c #804231",
"w@	c #804234",
"x@	c #864837",
"y@	c #894C3B",
"z@	c #884B3B",
"A@	c #864738",
"B@	c #874839",
"C@	c #7F3E30",
"D@	c #834435",
"E@	c #7D3F30",
"F@	c #804334",
"G@	c #A3A490",
"H@	c #C1634C",
"I@	c #814233",
"J@	c #793A2B",
"K@	c #824435",
"L@	c #824636",
"M@	c #8F5141",
"N@	c #8C4F3F",
"O@	c #905142",
"P@	c #7C3C2E",
"Q@	c #844536",
"R@	c #834335",
"S@	c #A3A38E",
"T@	c #ADAF9B",
"U@	c #A7A892",
"V@	c #9E9E89",
"W@	c #929381",
"X@	c #A1A28F",
"Y@	c #B1B39E",
"Z@	c #9D9E8B",
"`@	c #A4A48F",
" #	c #979786",
".#	c #ADAF99",
"+#	c #A3A48F",
"@#	c #9E9F8C",
"##	c #A1A28E",
"$#	c #9FA08C",
"%#	c #9FA08E",
"&#	c #9E9E8A",
"*#	c #A4A792",
"=#	c #A5A492",
"-#	c #A4A590",
";#	c #A6A792",
">#	c #A0A08C",
",#	c #A2A28D",
"'#	c #A7A994",
")#	c #A6A893",
"!#	c #C36650",
"~#	c #C86B55",
"{#	c #C0624A",
"]#	c #C1654F",
"^#	c #BF634D",
"/#	c #D0745B",
"(#	c #C66A52",
"_#	c #A1A08D",
":#	c #C0634C",
"<#	c #BD6048",
"[#	c #C76A52",
"}#	c #C56853",
"|#	c #BE5F49",
"1#	c #B75943",
"2#	c #C0644D",
"3#	c #B75B43",
"4#	c #C66650",
"5#	c #BE604B",
"6#	c #BC5F49",
"7#	c #C96C55",
"8#	c #BC6049",
"9#	c #C66751",
"0#	c #C3664E",
"a#	c #A05947",
"b#	c #8E4535",
"c#	c #8F4837",
"d#	c #944939",
"e#	c #804030",
"f#	c #ADAF9A",
"g#	c #C86952",
"h#	c #904635",
"i#	c #9C5542",
"j#	c #9A513E",
"k#	c #8C4431",
"l#	c #9C533F",
"m#	c #9A533F",
"n#	c #8B4C3B",
"o#	c #A5A792",
"p#	c #C56750",
"q#	c #8B4432",
"r#	c #99523E",
"s#	c #934B39",
"t#	c #97503E",
"u#	c #8E4433",
"v#	c #7B392D",
"w#	c #9B9B88",
"x#	c #BD6149",
"y#	c #8D4534",
"z#	c #944A3A",
"A#	c #8C4533",
"B#	c #974E3E",
"C#	c #A15B4A",
"D#	c #753729",
"E#	c #984F3D",
"F#	c #9B5541",
"G#	c #89432F",
"H#	c #8B4132",
"I#	c #824232",
"J#	c #9D9D8B",
"K#	c #9D5644",
"L#	c #985240",
"M#	c #914B37",
"N#	c #A25B49",
"O#	c #7F4232",
"P#	c #914736",
"Q#	c #9A5241",
"R#	c #9A503E",
"S#	c #9C5342",
"T#	c #96503E",
"U#	c #7B3B2D",
"V#	c #A8A794",
"W#	c #9B5443",
"X#	c #9C5643",
"Y#	c #954C3A",
"Z#	c #C46650",
"`#	c #A05A46",
" $	c #A15946",
".$	c #A55D4A",
"+$	c #914A38",
"@$	c #A7604B",
"#$	c #A55D49",
"$$	c #995040",
"%$	c #964E3E",
"&$	c #924A37",
"*$	c #773829",
"=$	c #BB5E49",
"-$	c #8A422F",
";$	c #A45B49",
">$	c #A05845",
",$	c #914A37",
"'$	c #A15B48",
")$	c #924C39",
"!$	c #834334",
"~$	c #8E4736",
"{$	c #944C3B",
"]$	c #864638",
"^$	c #814132",
"/$	c #8B4D3D",
"($	c #844535",
"_$	c #8F503F",
":$	c #9B9D88",
"<$	c #C96C54",
"[$	c #844636",
"}$	c #7D3F31",
"|$	c #702F21",
"1$	c #814232",
"2$	c #7A3C2C",
"3$	c #864737",
"4$	c #804133",
"5$	c #7D3E30",
"6$	c #7C3D2E",
"7$	c #844737",
"8$	c #BF644D",
"9$	c #894C3C",
"0$	c #854637",
"a$	c #7E3E2F",
"b$	c #7E3F32",
"c$	c #7D3E2E",
"d$	c #9D9F8B",
"e$	c #ABAD98",
"f$	c #A4A290",
"g$	c #989785",
"h$	c #A2A28F",
"i$	c #A6A693",
"j$	c #979985",
"k$	c #9D9E8A",
"l$	c #A9AB95",
"m$	c #A2A08D",
"n$	c #ACAF9A",
"o$	c #ABAA97",
"p$	c #A9AA97",
"q$	c #9D9C8A",
"r$	c #A6A794",
"s$	c #A9A994",
"t$	c #9C9C88",
"u$	c #ACAE9A",
"v$	c #A1A38E",
"w$	c #9EA08B",
"x$	c #A8A893",
"y$	c #A0A28E",
"z$	c #A7A894",
"A$	c #9FA08D",
"B$	c #C86B52",
"C$	c #B25340",
"D$	c #C96D55",
"E$	c #C86B53",
"F$	c #C56852",
"G$	c #BF614C",
"H$	c #B35840",
"I$	c #B2B39E",
"J$	c #C96E56",
"K$	c #C46851",
"L$	c #BE6049",
"M$	c #BE614A",
"N$	c #C66750",
"O$	c #AF523C",
"P$	c #BE6149",
"Q$	c #904936",
"R$	c #944C38",
"S$	c #954E3C",
"T$	c #8C4C3D",
"U$	c #A0A28D",
"V$	c #914637",
"W$	c #9E5542",
"X$	c #8E4533",
"Y$	c #9E5643",
"Z$	c #924A36",
"`$	c #9F5746",
" %	c #924C3A",
".%	c #824434",
"+%	c #BC6048",
"@%	c #99533F",
"#%	c #A15947",
"$%	c #8D4535",
"%%	c #8B4233",
"&%	c #A05B48",
"*%	c #A8AA95",
"=%	c #9B5342",
"-%	c #8B4333",
";%	c #8A4B3C",
">%	c #A8AB96",
",%	c #964C3B",
"'%	c #9B5440",
")%	c #974E3D",
"!%	c #8D4333",
"~%	c #CF725A",
"{%	c #98523F",
"]%	c #9C5443",
"^%	c #A45E4A",
"/%	c #924937",
"(%	c #7F4031",
"_%	c #A1A28D",
":%	c #C0634D",
"<%	c #9D5641",
"[%	c #9B5542",
"}%	c #924B3A",
"|%	c #ACAD98",
"1%	c #853C2C",
"2%	c #ADAE99",
"3%	c #C76B53",
"4%	c #8D4636",
"5%	c #98503F",
"6%	c #8D4434",
"7%	c #884839",
"8%	c #CD7058",
"9%	c #9A503D",
"0%	c #9C5543",
"a%	c #9A5140",
"b%	c #8A493A",
"c%	c #7C3F2F",
"d%	c #7B3D2F",
"e%	c #804131",
"f%	c #834434",
"g%	c #763729",
"h%	c #864838",
"i%	c #804134",
"j%	c #8A4C3C",
"k%	c #844437",
"l%	c #7F4030",
"m%	c #B1B39C",
"n%	c #7D3E2F",
"o%	c #7F3F31",
"p%	c #8B4C3D",
"q%	c #864536",
"r%	c #7A3A2B",
"s%	c #894B3A",
"t%	c #814333",
"u%	c #A6A692",
"v%	c #9FA18C",
"w%	c #939380",
"x%	c #AAAA96",
"y%	c #9EA18D",
"z%	c #A9A995",
"A%	c #9FA28C",
"B%	c #999A86",
"C%	c #AEAF9B",
"D%	c #9EA08E",
"E%	c #9D9D89",
"F%	c #9C9B89",
"G%	c #9B9C89",
"H%	c #AEB09B",
"I%	c #9F9E8C",
"J%	c #A8A993",
"K%	c #ABAC97",
"L%	c #9E9E8C",
"  . + @ # $ % & * = - ; > $ , ' ) ! ~ { ] ^ / ( _ : < [ } | 1 2 ",
"3 4 5 6 7 8 9 0 a b c d e f g h i j 6 k l m n o p q r s t u v w ",
"x y z x A B C D E F s G H m I J 6 K L M N O P Q p R S T u U V W ",
"X Y Z `  ...+.@.#.y A $.%.&.*.=.-.;.>.,.'.).!.~.{.].^.-./.(._.:.",
"` <.[.}.|.1.2.3.4.5.N 6.7.8.u 9.0.W a.b. .a.c.d.e.f.g.h.i.j.$.k.",
"<.S l.m z m.n.o.p.q.r.s.t.6 u.'.'.v.w.x.%.y.z.A.B.y 9.C.D.E.z =.",
"F.P G.H.I.J.K.L.M.N.C 9 +.O.P.Q.R.S.T.U.V.W.X.Y.Z.`. +.+++@+#+$+",
"%+0 &+*+=+-+&+;+>+,+'+)+!+~+{+]+=+^+/+(+_+>+:+<+[+}+|+1+2+3+4+5+",
"6+B.7+8+9+0+a+b+c+d+e+f+4.g+# h+i+j+Z.} k+l+/ m+n+o+p+q+r+; s+t+",
"u+v+e s w+[.x+y+z+A+d f B+B C+D+E+F+G+H+s %.I+%.v.J+K+M L+z P.M+",
"N+f 1.O+P+Q+R+S+g.T+y.s U+<.P V+W+X+Y+Z+`+=. @j.e .@+@U @@#@$@%@",
"+ &@*@=@-@;@z+>@,@>@,.Y+'@;.)@!@a+%.~@{@]@|.K+^@/@(@s.).A+_@:@<@",
"[@}@|@1@^.U 2@s 3@q.m X 4@k.5@'+6@h.q.X+7@s.z 8@9@0@a@b@c@4@d@&+",
"e@^.f@g@<.>@<.h@H i@g@x j@Z U.k@l@m@m (.D.<.n@o@m p@M 7 q@r@s@t@",
"u@v@C w@x@y@U.z@2.A@B@C@D@E@F@G@H@@+!.I@J@K@L@M@x@$+N@O@P@Q@R@<+",
"S@T@U@V@W@X@Y@Z@2+`@ #.#+#@#]+##$###!@%#&#*#=#-#;#>#]+,#X@'#!@)#",
"!#~#{#]#^#/#(#_#} :#<#[#}#|#1#2#3#B.4#5#n+W+6#@.H@7#<#- 8#9#0#B.",
"a#6.b#c#d d#e#f#g#h#F i#j#J+*@k#*@r@7 l#m#8 n#o#p#q#4@k.r#(.s#;.",
"I '.J+t#>@u#v#w#x#y#{@s K+).&@z#A#).s >@B#C#D#k@^ ;@j#j@E#@@F#*@",
"G#b.A :.l.H#I#J#E+F K#3@` s o@;.L#i@c#M# .N#O#0 4.P#Q#h A y#F+q@",
"R#z S#T#|.C.U#V#q+L O W#P+x.X#t.Y#C.B /.#@;.V.'#Z#`# $|@.$^.7@+$",
"@$#$$$C.%$&$*$!@=$X K+-$;$^.h.>$,$'$z#F+)$o@!$(+~ 7 ~$+${$m ^.h#",
"]$^$+./$($_$P.:$<$[$}$/$|$1$2$9 [$3$4$5$6$7$R@;#8$9$n.0$a$b$c$^$",
"d$e$-#f$g$G@h$i$j$k$l$m$n$;#o$-+p$D q$r$!@<+s$t$u$v$w$x$>#y$z$A$",
"B$r+8$^ C$^ D$E$F$- G$H@, { H$I$J$p+K$, L$M$; } b+i+- N$O${.P$v$",
"D$Q$-@5 6.R$E#<.m#4@E.e S$s T$U$/ V$h.(.W$W X$Y$B (.Z$`$ %M .%h$",
"+%%.@%#%$%%%&%9.~@B u |.:.*@P *%r+G+N z+u {@ .S$=%H+-%m Y$v.;%>%",
"k+L ~@a@,%'%l.@@U G+E#)%!%q.5$;#~%q.7@$.(@G j.K#{%]%>@^%U /%(%_%",
":%;.<% .l#z+A G h#H+K+[%}%;.O#|%M$`+A {@R m 6.m 1%/.h..@[.d C+2%",
"3%A 4%t#+@5%j@3@:.f.c t#6%b 7%& 8%i.O+a@9%-@o@'$b@7 0%I /@a%b%e$",
"% c%d%e%f%g%h%i%h%(%A@++j%k%l%m%:#U#n%n o%p%q%r%s% +B@E@!.t%$@u%",
"v%w%x%y%f#X@z%0 A%k$Z@B%/+C%<@)#D%E%-+F%$#@.G%H%I%G%;#+#J%z$K%L%"};
