/* XPM */
static char *e15b4a6b628d4f6a93ea5622806ec9e45HFzMUNkFrhcCnJG[] = {
/* columns rows colors chars-per-pixel */
"32 32 6 1 ",
"  c None",
". c #191715",
"X c #795547",
"o c #AE846E",
"O c #A79A90",
"+ c #D4C0AA",
/* pixels */
"                                ",
"                                ",
"                  O         O   ",
"                O O         O O ",
"                O OO       OO O ",
"                OOOOO     OOOOO ",
"                   OXOO  OXO    ",
"                  OO+XoOOX+OO   ",
"                     oo+++o     ",
"                      o.+++     ",
"                      oooo..    ",
"                      oooooo    ",
"                      ooooo     ",
"                     ooo++      ",
"                    ooo++       ",
"       oooooooooooooooo++       ",
"  o  oooooooooooooooooo++       ",
"  oooooooooooooooooooo+++       ",
"  oooooooooooooooooooo++        ",
"   ooooooooooooooooooo++        ",
"    +oooooooooooooooo++O        ",
"    +oooo+++++++++oo++O         ",
"     oo+++O       +++OO         ",
"     ++++O        ++ OO         ",
"     +++O         ++ O          ",
"    ++++          ++ O          ",
"    ++ O          +  O          ",
"    +  O          +  O          ",
"    +  O          +  O          ",
"    +  X          +  X          ",
"    X  X          X  X          ",
"    X             X             "
};
