/* XPM */
static char * C:\Users\pc\Desktop\floor_xpm[] = {
"32 32 613 2",
"  	c #8AC924",
". 	c #76AD1B",
"+ 	c #80B724",
"@ 	c #76AA1A",
"# 	c #7DB421",
"$ 	c #82B824",
"% 	c #8CC824",
"& 	c #8ED11B",
"* 	c #88C521",
"= 	c #76AA17",
"- 	c #7AB11F",
"; 	c #72A615",
"> 	c #7DBC17",
", 	c #79AF1D",
"' 	c #7CB120",
") 	c #7DB320",
"! 	c #86C320",
"~ 	c #9ADC27",
"{ 	c #93D720",
"] 	c #87C31F",
"^ 	c #83BF1A",
"/ 	c #99DB26",
"( 	c #74AA17",
"_ 	c #7EB422",
": 	c #88C41F",
"< 	c #76AC1A",
"[ 	c #78AE1B",
"} 	c #99DE28",
"| 	c #91D31E",
"1 	c #87C41F",
"2 	c #87CB16",
"3 	c #6DA211",
"4 	c #76AB18",
"5 	c #87C31E",
"6 	c #78B612",
"7 	c #8CCB24",
"8 	c #77AD19",
"9 	c #70A715",
"0 	c #6FA713",
"a 	c #7CB220",
"b 	c #77AE1B",
"c 	c #79AE1D",
"d 	c #8CC822",
"e 	c #7FBB17",
"f 	c #90D21E",
"g 	c #8CC823",
"h 	c #80B623",
"i 	c #7FBC17",
"j 	c #93D61F",
"k 	c #97D924",
"l 	c #8DC925",
"m 	c #8AC02E",
"n 	c #7BB01F",
"o 	c #7DB815",
"p 	c #96DA22",
"q 	c #6EA413",
"r 	c #7EBA16",
"s 	c #6CA111",
"t 	c #8CCA25",
"u 	c #9DE129",
"v 	c #8AC621",
"w 	c #88C621",
"x 	c #88C520",
"y 	c #79B01D",
"z 	c #89C521",
"A 	c #9EE22A",
"B 	c #8CCF1A",
"C 	c #8ED01A",
"D 	c #89C620",
"E 	c #8DCB25",
"F 	c #7FB622",
"G 	c #75AA18",
"H 	c #86C31D",
"I 	c #8AC821",
"J 	c #98DB24",
"K 	c #80BA17",
"L 	c #87C31D",
"M 	c #90CD26",
"N 	c #88C51F",
"O 	c #8AC923",
"P 	c #81BF1A",
"Q 	c #80B823",
"R 	c #7BB11E",
"S 	c #73A818",
"T 	c #85C21E",
"U 	c #6EA514",
"V 	c #88C420",
"W 	c #91D41E",
"X 	c #8FD31C",
"Y 	c #8BC822",
"Z 	c #77AC1A",
"` 	c #7BB914",
" .	c #7BB221",
"..	c #7CB221",
"+.	c #6EA512",
"@.	c #6DA312",
"#.	c #9ADE27",
"$.	c #91D620",
"%.	c #8FCA26",
"&.	c #86C11D",
"*.	c #74AA18",
"=.	c #7AB01E",
"-.	c #92D02B",
";.	c #95D621",
">.	c #8BC824",
",.	c #79AE1C",
"'.	c #71A615",
").	c #73A917",
"!.	c #7AB11E",
"~.	c #72A716",
"{.	c #74AB18",
"].	c #71A818",
"^.	c #75AB1A",
"/.	c #72A818",
"(.	c #80BC17",
"_.	c #87C51F",
":.	c #7BB01E",
"<.	c #7FB422",
"[.	c #84BA27",
"}.	c #70A514",
"|.	c #70A615",
"1.	c #6FA312",
"2.	c #84C01C",
"3.	c #98DC25",
"4.	c #96D923",
"5.	c #86C11E",
"6.	c #7AB21F",
"7.	c #8BCA24",
"8.	c #90D11B",
"9.	c #8FD21B",
"0.	c #75AB19",
"a.	c #689D0D",
"b.	c #74AA19",
"c.	c #8ECD26",
"d.	c #8CC924",
"e.	c #8AC823",
"f.	c #75A919",
"g.	c #7DBA15",
"h.	c #8ED01B",
"i.	c #81BE19",
"j.	c #6A9F0F",
"k.	c #81BC17",
"l.	c #7DB915",
"m.	c #72A817",
"n.	c #94D521",
"o.	c #8AC723",
"p.	c #8BCA22",
"q.	c #7EB916",
"r.	c #93D02B",
"s.	c #8DCA24",
"t.	c #79AF1C",
"u.	c #88C622",
"v.	c #8FCE28",
"w.	c #97DA24",
"x.	c #7BB11F",
"y.	c #84C21C",
"z.	c #8FD21C",
"A.	c #9EDF2A",
"B.	c #8ED01C",
"C.	c #7AB613",
"D.	c #72A917",
"E.	c #85C31E",
"F.	c #93D32B",
"G.	c #7CB320",
"H.	c #73A816",
"I.	c #8AC721",
"J.	c #88C31F",
"K.	c #8CC923",
"L.	c #93D51F",
"M.	c #8ECB24",
"N.	c #76AC1B",
"O.	c #74A817",
"P.	c #78AF1C",
"Q.	c #7BB21E",
"R.	c #7EB523",
"S.	c #80BE19",
"T.	c #99DC26",
"U.	c #75AA19",
"V.	c #71A816",
"W.	c #7FBA15",
"X.	c #95D823",
"Y.	c #8ACC19",
"Z.	c #95D923",
"`.	c #9EE32D",
" +	c #8DD11B",
".+	c #9CDD28",
"++	c #99DD26",
"@+	c #7DB11D",
"#+	c #77AE1C",
"$+	c #76AB1A",
"%+	c #78AD1B",
"&+	c #8DCB26",
"*+	c #99DC28",
"=+	c #89C520",
"-+	c #98DC26",
";+	c #8AC724",
">+	c #7CB11F",
",+	c #88C620",
"'+	c #82BF1C",
")+	c #7AAF1D",
"!+	c #80B422",
"~+	c #79B01C",
"{+	c #76AB19",
"]+	c #81BE1C",
"^+	c #82BE19",
"/+	c #7CB714",
"(+	c #95DA24",
"_+	c #96D922",
":+	c #90D31E",
"<+	c #82C01A",
"[+	c #71A715",
"}+	c #7BB220",
"|+	c #86C41F",
"1+	c #7DBA16",
"2+	c #77AD1B",
"3+	c #7FB916",
"4+	c #90CF28",
"5+	c #7EB322",
"6+	c #93D621",
"7+	c #8DCF1A",
"8+	c #7DB31F",
"9+	c #75AC1A",
"0+	c #6BA00E",
"a+	c #7CB11E",
"b+	c #8BC722",
"c+	c #83BF1B",
"d+	c #80BC18",
"e+	c #7EB421",
"f+	c #83B927",
"g+	c #85C21D",
"h+	c #6FA212",
"i+	c #84C11C",
"j+	c #97DA23",
"k+	c #82BF1B",
"l+	c #86C31F",
"m+	c #74AC1A",
"n+	c #74A91A",
"o+	c #87C41E",
"p+	c #71A514",
"q+	c #6EA310",
"r+	c #73A916",
"s+	c #94D721",
"t+	c #8BC924",
"u+	c #7BB814",
"v+	c #7EB622",
"w+	c #7AAE1D",
"x+	c #7FBF18",
"y+	c #8DCA26",
"z+	c #98DA24",
"A+	c #8DCF19",
"B+	c #93D722",
"C+	c #87C11F",
"D+	c #79B01E",
"E+	c #89C622",
"F+	c #99DB24",
"G+	c #8ECB26",
"H+	c #91CF29",
"I+	c #90CD27",
"J+	c #86BE2A",
"K+	c #81B723",
"L+	c #7EB321",
"M+	c #6FA514",
"N+	c #94D620",
"O+	c #92D720",
"P+	c #92D61F",
"Q+	c #9CE027",
"R+	c #92D51E",
"S+	c #99DD27",
"T+	c #92D22B",
"U+	c #8BCC17",
"V+	c #95D721",
"W+	c #8ECA25",
"X+	c #8CCB25",
"Y+	c #7CBA15",
"Z+	c #80B723",
"`+	c #90CF29",
" @	c #7FBB18",
".@	c #86C31E",
"+@	c #7CB21F",
"@@	c #8AC822",
"#@	c #88C61F",
"$@	c #9ADC25",
"%@	c #9CDF27",
"&@	c #80B824",
"*@	c #85BC29",
"=@	c #6FA413",
"-@	c #8FCD26",
";@	c #8FD21D",
">@	c #7BB713",
",@	c #7CB321",
"'@	c #8BC823",
")@	c #78AE1C",
"!@	c #83B926",
"~@	c #91CE29",
"{@	c #94D821",
"]@	c #6FA513",
"^@	c #74AB19",
"/@	c #73A716",
"(@	c #84BF1C",
"_@	c #6CA110",
":@	c #86C21E",
"<@	c #92D029",
"[@	c #8BC723",
"}@	c #92CD28",
"|@	c #98D62F",
"1@	c #8CC925",
"2@	c #7EB522",
"3@	c #7BB812",
"4@	c #79B611",
"5@	c #87C420",
"6@	c #9DDF29",
"7@	c #9FE22A",
"8@	c #96D823",
"9@	c #9ADD27",
"0@	c #7DB522",
"a@	c #8DC924",
"b@	c #89C821",
"c@	c #7EB915",
"d@	c #85C21F",
"e@	c #71A513",
"f@	c #7EBB17",
"g@	c #86C21D",
"h@	c #7AB814",
"i@	c #6EA110",
"j@	c #8FCC27",
"k@	c #89C822",
"l@	c #84C31C",
"m@	c #86C520",
"n@	c #95D620",
"o@	c #92D31F",
"p@	c #91CF28",
"q@	c #8FCB26",
"r@	c #86C813",
"s@	c #699F0F",
"t@	c #8ECA26",
"u@	c #8AC722",
"v@	c #8DD01C",
"w@	c #70A513",
"x@	c #8DCA25",
"y@	c #73A815",
"z@	c #89C722",
"A@	c #82C11E",
"B@	c #72A616",
"C@	c #70A412",
"D@	c #70A613",
"E@	c #85C01B",
"F@	c #97D822",
"G@	c #95D822",
"H@	c #9BDD26",
"I@	c #9ADE26",
"J@	c #9EE32C",
"K@	c #9BDF28",
"L@	c #71A817",
"M@	c #89C71F",
"N@	c #9DE12A",
"O@	c #91D420",
"P@	c #86C41E",
"Q@	c #8DCC25",
"R@	c #85C11D",
"S@	c #99DB25",
"T@	c #91D41C",
"U@	c #8CCA24",
"V@	c #7FB724",
"W@	c #89C721",
"X@	c #70A816",
"Y@	c #78B01C",
"Z@	c #71A613",
"`@	c #83C01C",
" #	c #9EE02A",
".#	c #9BDD27",
"+#	c #7EB917",
"@#	c #89C823",
"##	c #7EB521",
"$#	c #74A818",
"%#	c #80BE18",
"&#	c #97DD24",
"*#	c #97D823",
"=#	c #94D71F",
"-#	c #8ECC26",
";#	c #80B624",
">#	c #649909",
",#	c #73AA19",
"'#	c #8ECB25",
")#	c #9BDF29",
"!#	c #9EE22B",
"~#	c #83C01B",
"{#	c #7AB31F",
"]#	c #80BB18",
"^#	c #8FD21E",
"/#	c #81BD1A",
"(#	c #92D51F",
"_#	c #9CDE28",
":#	c #86C21C",
"<#	c #9ADD26",
"[#	c #87C620",
"}#	c #7DB422",
"|#	c #96D822",
"1#	c #92CE2B",
"2#	c #7EBB15",
"3#	c #7CB21E",
"4#	c #9BDE28",
"5#	c #82BE1A",
"6#	c #6FA415",
"7#	c #73AA17",
"8#	c #7EBB16",
"9#	c #75AD19",
"0#	c #86BD2A",
"a#	c #92CF29",
"b#	c #84C11B",
"c#	c #7BB715",
"d#	c #7FBC16",
"e#	c #90D21B",
"f#	c #92CF28",
"g#	c #6AA110",
"h#	c #73AA18",
"i#	c #93D12C",
"j#	c #93CF29",
"k#	c #7CBB14",
"l#	c #84BC28",
"m#	c #91CD28",
"n#	c #92CF2A",
"o#	c #76AE1B",
"p#	c #71A717",
"q#	c #80BD18",
"r#	c #74AC18",
"s#	c #74A918",
"t#	c #7EB914",
"u#	c #77AF1C",
"v#	c #77AC1B",
"w#	c #97D922",
"x#	c #94D722",
"y#	c #80B725",
"z#	c #93CF2A",
"A#	c #9CE12A",
"B#	c #9CE02A",
"C#	c #92D41F",
"D#	c #94D822",
"E#	c #70A614",
"F#	c #71A714",
"G#	c #82BA27",
"H#	c #7AB320",
"I#	c #7FBD17",
"J#	c #7AB01D",
"K#	c #86C220",
"L#	c #91D31D",
"M#	c #88C722",
"N#	c #84BA29",
"O#	c #80BB17",
"P#	c #A1E62E",
"Q#	c #80BF1A",
"R#	c #7BB714",
"S#	c #87C21E",
"T#	c #74A716",
"U#	c #7AB220",
"V#	c #7DB220",
"W#	c #7DB321",
"X#	c #82BE1C",
"Y#	c #7EB524",
"Z#	c #93D620",
"`#	c #85C01C",
" $	c #71A614",
".$	c #74AC19",
"+$	c #83BC27",
"@$	c #8BCE19",
"#$	c #9ADE28",
"$$	c #87C21D",
"%$	c #6FA614",
"&$	c #91D720",
"*$	c #8FD11C",
"=$	c #8DD01B",
"-$	c #85C21C",
";$	c #8DD11A",
">$	c #99DB27",
",$	c #8DCB24",
"'$	c #78AF1D",
")$	c #7FBC19",
"!$	c #95DB23",
"~$	c #7AB01F",
"{$	c #78B410",
"]$	c #77AD1C",
"^$	c #84C31E",
"/$	c #87C520",
"($	c #81B825",
"_$	c #6FA515",
":$	c #96D924",
"<$	c #97DA25",
"[$	c #95D61F",
"}$	c #9ADB25",
"|$	c #95D428",
"1$	c #8BC923",
"2$	c #75AB18",
"3$	c #93CF2B",
"4$	c #90D31D",
"5$	c #75AA1A",
"6$	c #88C41E",
"7$	c #78B510",
"8$	c #78AF1B",
"9$	c #79AF1E",
"0$	c #81B522",
"a$	c #80BD19",
"b$	c #6DA311",
"c$	c #90D41E",
"d$	c #85C11C",
"e$	c #9ADF27",
"f$	c #81BD18",
"g$	c #7BB712",
"h$	c #83BF19",
"i$	c #6EA513",
"j$	c #95D922",
"k$	c #99DC25",
"l$	c #91D51F",
"m$	c #93D721",
"n$	c #97DC25",
"o$	c #72A714",
"p$	c #71A815",
"q$	c #74AA1A",
"r$	c #7FBE19",
"s$	c #95D521",
"t$	c #9CE22A",
"u$	c #7FBA17",
"v$	c #72A717",
"w$	c #6EA312",
"x$	c #83B925",
"y$	c #74A917",
"z$	c #7EBC17",
"A$	c #83C11C",
"B$	c #82BF18",
"C$	c #8FCD27",
"D$	c #89CB15",
"E$	c #83C01A",
"F$	c #A1E52D",
"G$	c #71A916",
"H$	c #84C11D",
"I$	c #80BE1A",
"J$	c #81BE18",
"K$	c #6BA110",
"L$	c #87C621",
"M$	c #86C11C",
"N$	c #73A817",
"O$	c #6AA011",
"P$	c #91D41D",
"Q$	c #8ECF1B",
"R$	c #76AD1A",
"S$	c #91CD26",
"T$	c #8ED31C",
"U$	c #7DB11E",
"V$	c #76AA19",
"W$	c #92D620",
"X$	c #8BCD18",
"Y$	c #84C01B",
"Z$	c #9FE12C",
"`$	c #75AC19",
" %	c #77AB1A",
".%	c #78AD1A",
"+%	c #8CC723",
"@%	c #6FA512",
"#%	c #6BA111",
"$%	c #9CDF28",
"%%	c #78AE1D",
"&%	c #6FA314",
"*%	c #90D31B",
"=%	c #7AB611",
"-%	c #9FE12A",
";%	c #73AA1A",
">%	c #9BD430",
",%	c #679B0C",
"'%	c #6FA615",
")%	c #81B624",
"!%	c #7FBD18",
"~%	c #8FD11B",
"{%	c #86C01D",
"]%	c #9CDF2A",
"^%	c #9EE12A",
"/%	c #89C422",
"(%	c #98D630",
"_%	c #7DB420",
":%	c #91CE28",
"<%	c #98DB25",
"[%	c #72A916",
"}%	c #88C421",
"|%	c #98DD25",
"1%	c #7FB523",
"2%	c #6FA313",
"3%	c #90D41F",
"4%	c #7CB915",
"5%	c #8BC721",
"6%	c #7EB814",
"7%	c #8ACE16",
"8%	c #89C621",
"9%	c #7FBC18",
"0%	c #8CCF19",
"a%	c #80BC16",
"b%	c #75AC17",
"c%	c #70A714",
"d%	c #85C31C",
"e%	c #9DDD29",
"f%	c #82C21D",
"g%	c #7FBB15",
"h%	c #7CB916",
"i%	c #78AD1C",
"j%	c #73A918",
"k%	c #84C21D",
"l%	c #85C31D",
"m%	c #95D821",
"n%	c #97DA21",
"o%	c #75AB1B",
"p%	c #85BB29",
"q%	c #8DCF1B",
"r%	c #9CE02B",
"s%	c #9EE22C",
"t%	c #82C11D",
"u%	c #90CE27",
"v%	c #92D41E",
"  . + @ # $ % & * = - ; > * , ' ) ! ~ { ] ^ / ( _ : < [ } | 1 2 ",
"3 4 5 6 7 8 9 0 a b c d e f g h i j k l m n o p q r s t u v w x ",
"y i z A B C D E F G H I J K L a M N O P Q R S T U V V W X Y Z ` ",
" ...+.@.d #.$.%.&.*.=.-.;.Y >.,.'.t ).!.~.{.].^./.(.J W _.Y :.<.",
"Z [.g }.|.1.2.3.4.5.6.7.8.9.b 0.a.n b._.c.d.e.f., _.g.h.i.j.q k.",
"l.m.n.o.b.=.p.q.r.s.t.u.v.w.x.y.< v _.z.A.B.C.t . D.).E.F.G.H.I.",
"J.K.L.M.N.~.O.P.Q._ R.=.S.T.U.1 V.W.X.Y.Z.`. +.+++@+#+$+( %+&+*+",
"p =+-+;+>+,+'+)+!+~+i.R.{+]+y ^+/+(+_+:+<+[+}+< |+1+2+3+4+5+E w.",
"6+7+] 8+9+0+a+c b+e c+d+e+f+g+h+i+j+k+l+0.m+n+o+p+q+r+O #.s+t+u+",
"v+w+3 $+# x+y+x z+A+B+I.C+D+f+|.E+F+G+V x.H+I+b J+K+L+M+t+N+O+x ",
"c <+}.@.,+P+Q+R+S+T+U+V+W+X+Y+Z+7.`+1 G.e N <.: c+ @.@- +@Z .@*.",
"@@E+< #@$@%@&@*@=@2+-@F+;@>@G+,@'@)@!@; x.9 ~@* {@A .@1 1 ]@9 D.",
"^@/@t.(@_@:@,+H <@[@b W+^+E+}@|@1@2@3@4@:.b.5@6@6+7@8@9@Y 0@a@r.",
"t b@M+2+c@d@t.'.e@f@g@- h@y.i@j@y E _.k@l@_ m@n@o@p@q@r@s+: s@t@",
"u@v@w@/.x@y@O.z@A@B@0.[+m+}.C@:@D@.@E@F@z :.. G+G@7.}.Z H@I@O.J@",
"K@V+J.L@m.0.M@N@O@E 1 b.D.x@P@]@Z+Q@R@S@T@U@V@W@g+X@Y@Z@`@ +.  #",
".#+#@###$#%#{ &#*#=#-#< H o..@u@;#>#,#'#)#!#~#{#< +@M t@+ ]#H ^#",
"t+/#)@) -#(#_#:#q.<#[#}#`@|#N 1#_@2#3#n >.4#T.- %+5#}#6#$#7#8#~#",
"#+:.9#0#J _+{.*.a#b#( r+f@|#G@c#[ d#I 2@p+:@e#f#k+k+g#U@x@Z h#i#",
"=.j#3 D k#l#m#n#w@o#p#,.H q#4#W@r#s#t#u#[+v#w#x#u@y#z#A#B#C#D#E#",
"|+F#]@0.@ G#H#c#I#`@g g J#K#N+L#M#P.- i+'.N#S+b+*.O#|+:+P#a@~@b.",
"]@Q#D q#R#S#T#U#'#V#W#X#, Y#H Z#`# $< *..$J#n o.+$H @$#$`@$$c %$",
"5@&$*$=$$@-$$+p+Z.;$>$r.,$9 '$)$!$~$, i.{$d ] {+]$G ^$/$Y ($Z _$",
":$q#* a@<$[$[ 2#}$|$R@L@5 1$2$3$4$5$W@K.C#6$7$'#8$D.9$J#0$a$b$c$",
"i+, 5#2.d$, q e$| f$D ,.}+g$h$i$% 4 ]#j$k$l$m$n$1 H.o$a$v '@p$P+",
", q$U.(.r$y s$t$u$_ v$' w$a b.x x$y$g %@#@E@1 z$4.A$[.H B$x H C$",
". %$D$Z E$y F$g++ G$A+S+,.D H$I$J$=.K$E+L$M$N$O$P$Q$J#U#R$D+S$) ",
"h#W@T$U$g+a@P@V$K$W$X$P.H.Y$Z$R+3.V {.'$`$G+ %.%+%* P.z$I$I#@%#%",
"S 9.$%%%>+@ _@&%W#*%=%Z@N.D#;@R$k$-%o+;%>%,%'%)%$+c !%U@~%{%] b#",
"]%^%/%G (%N$_%:%<%~ :.[%}%|%q 1%2%|#3%-+'@!%R.4%t.0+5%6%R+7%8%9%",
"F$e.]$%%< %.C$Z#0%a%] ~$$#b%u#c%: t+d%e%f%g%h%i%j%,+E#H b+9@{@J ",
"1+k%s#t.2$l%m%n%H$T o%p%R$j%5.#+{.v#Y q%r%s%8@o%@ 8%b$t%u%m%6+v%"};
